# Blender 3.5.1
# www.blender.org
mtllib Computer Mouse.mtl
o Cube.001
v 0.300000 -0.100000 -0.200000
v 0.300000 -0.100000 0.200000
v -0.300000 -0.100000 -0.200000
v -0.300000 -0.100000 0.200000
v 0.279951 0.100000 -0.186634
v 0.300000 0.066248 -0.200000
v 0.279951 0.100000 0.186634
v 0.300000 0.066248 0.200000
v -0.279951 0.100000 -0.186634
v -0.300000 0.066248 -0.200000
v -0.279951 0.100000 0.186634
v -0.300000 0.066248 0.200000
v 0.030000 0.120000 -0.170000
v 0.030000 -0.080000 -0.170000
v 0.030000 0.120000 -0.010000
v 0.030000 -0.080000 -0.010000
v -0.270000 0.120000 -0.170000
v -0.270000 -0.080000 -0.170000
v -0.270000 0.120000 -0.010000
v -0.270000 -0.080000 -0.010000
v 0.030000 0.120000 0.010000
v 0.030000 -0.080000 0.010000
v 0.030000 0.120000 0.170000
v 0.030000 -0.080000 0.170000
v -0.270000 0.120000 0.010000
v -0.270000 -0.080000 0.010000
v -0.270000 0.120000 0.170000
v -0.270000 -0.080000 0.170000
vn -0.0000 -0.0000 1.0000
vn -1.0000 -0.0000 -0.0000
vn -0.0000 -1.0000 -0.0000
vn -0.0000 1.0000 -0.0000
vn 1.0000 -0.0000 -0.0000
vn -0.0000 0.3682 0.9298
vn 0.8598 0.5107 -0.0000
vn -0.8598 0.5107 -0.0000
vn -0.0000 0.3682 -0.9298
vn -0.0000 -0.0000 -1.0000
vt 0.375000 0.500000
vt 0.375000 0.750000
vt 0.125000 0.500000
vt 0.375000 0.250000
vt 0.375000 1.000000
vt 0.375000 0.000000
vt 0.125000 0.750000
vt 0.633354 0.508354
vt 0.625000 0.500000
vt 0.616646 0.500000
vt 0.633354 0.741646
vt 0.625000 0.750000
vt 0.616646 0.750000
vt 0.866646 0.508354
vt 0.875000 0.500000
vt 0.616646 0.250000
vt 0.866646 0.741646
vt 0.616646 1.000000
vt 0.616646 0.000000
vt 0.875000 0.750000
vt 0.625000 0.500000
vt 0.375000 0.500000
vt 0.625000 0.750000
vt 0.375000 0.750000
vt 0.875000 0.500000
vt 0.625000 0.250000
vt 0.125000 0.500000
vt 0.375000 0.250000
vt 0.875000 0.750000
vt 0.625000 1.000000
vt 0.625000 0.000000
vt 0.375000 1.000000
vt 0.375000 0.000000
vt 0.125000 0.750000
vt 0.625000 0.500000
vt 0.375000 0.500000
vt 0.625000 0.750000
vt 0.375000 0.750000
vt 0.875000 0.500000
vt 0.625000 0.250000
vt 0.125000 0.500000
vt 0.375000 0.250000
vt 0.875000 0.750000
vt 0.625000 1.000000
vt 0.625000 0.000000
vt 0.375000 1.000000
vt 0.375000 0.000000
vt 0.125000 0.750000
s 0
usemtl Material.001
f 2/2/1 8/13/1 12/18/1 4/5/1
f 4/6/2 12/19/2 10/16/2 3/4/2
f 3/3/3 1/1/3 2/2/3 4/7/3
f 5/8/4 9/14/4 11/17/4 7/11/4
f 1/1/5 6/10/5 8/13/5 2/2/5
f 7/11/6 11/17/6 12/20/6 8/12/6
f 5/8/7 7/11/7 8/13/7 6/10/7
f 11/17/8 9/14/8 10/15/8 12/20/8
f 9/14/9 5/8/9 6/9/9 10/15/9
f 3/4/10 10/16/10 6/10/10 1/1/10
usemtl Material
f 13/21/4 17/25/4 19/29/4 15/23/4
f 16/24/1 15/23/1 19/30/1 20/32/1
f 20/33/2 19/31/2 17/26/2 18/28/2
f 18/27/3 14/22/3 16/24/3 20/34/3
f 14/22/5 13/21/5 15/23/5 16/24/5
f 18/28/10 17/26/10 13/21/10 14/22/10
usemtl Material.002
f 21/35/4 25/39/4 27/43/4 23/37/4
f 24/38/1 23/37/1 27/44/1 28/46/1
f 28/47/2 27/45/2 25/40/2 26/42/2
f 26/41/3 22/36/3 24/38/3 28/48/3
f 22/36/5 21/35/5 23/37/5 24/38/5
f 26/42/10 25/40/10 21/35/10 22/36/10
