# Blender 3.5.1
# www.blender.org
mtllib Computer Mouse.mtl
o Cube.001
v 0.300000 -0.100000 -0.200000
v 0.300000 -0.100000 0.200000
v -0.300000 -0.100000 -0.200000
v -0.300000 -0.100000 0.200000
v 0.279951 0.100000 -0.186634
v 0.300000 0.066248 -0.200000
v 0.279951 0.100000 0.186634
v 0.300000 0.066248 0.200000
v -0.279951 0.100000 -0.186634
v -0.300000 0.066248 -0.200000
v -0.279951 0.100000 0.186634
v -0.300000 0.066248 0.200000
v 0.030000 0.120000 -0.170000
v 0.030000 -0.080000 -0.170000
v 0.030000 0.120000 -0.010000
v 0.030000 -0.080000 -0.010000
v -0.270000 0.120000 -0.170000
v -0.270000 -0.080000 -0.170000
v -0.270000 0.120000 -0.010000
v -0.270000 -0.080000 -0.010000
v 0.030000 0.120000 0.010000
v 0.030000 -0.080000 0.010000
v 0.030000 0.120000 0.170000
v 0.030000 -0.080000 0.170000
v -0.270000 0.120000 0.010000
v -0.270000 -0.080000 0.010000
v -0.270000 0.120000 0.170000
v -0.270000 -0.080000 0.170000
vn -0.0000 -0.0000 1.0000
vn -1.0000 -0.0000 -0.0000
vn -0.0000 -1.0000 -0.0000
vn -0.0000 1.0000 -0.0000
vn 1.0000 -0.0000 -0.0000
vn -0.0000 0.3682 0.9298
vn 0.8598 0.5107 -0.0000
vn -0.8598 0.5107 -0.0000
vn -0.0000 0.3682 -0.9298
vn -0.0000 -0.0000 -1.0000
vt 0.271489 0.003847
vt 0.483507 0.546825
vt 0.713411 0.279182
vt 0.731297 0.271489
vt 0.271489 0.271489
vt 0.483507 0.279182
vt 0.501393 0.003847
vt 0.003847 0.003847
vt 0.713411 0.546825
vt 0.731297 0.003847
vt 0.501393 0.271489
vt 0.003847 0.271489
vt 0.003847 0.279182
vt 0.952532 0.012790
vt 0.960888 0.813217
vt 0.261296 0.546825
vt 0.906983 0.003847
vt 0.915339 0.822160
vt 0.491200 0.279182
vt 0.003847 0.528938
vt 0.996153 0.288126
vt 0.952532 0.262546
vt 0.509086 0.271489
vt 0.261296 0.279182
vt 0.950604 0.279182
vt 0.906983 0.271489
vt 0.253603 0.279182
vt 0.899290 0.262546
vt 0.960888 0.563461
vt 0.279182 0.003847
vt 0.853741 0.271489
vt 0.915339 0.554518
vt 0.491200 0.546825
vt 0.253603 0.528938
vt 0.996153 0.537881
vt 0.899290 0.012790
vt 0.509086 0.003847
vt 0.279182 0.271489
vt 0.950604 0.546825
vt 0.853741 0.003847
vt 0.907646 0.554518
vt 0.846047 0.271171
vt 0.402810 0.821842
vt 0.110904 0.945470
vt 0.846047 0.003847
vt 0.402810 0.554518
vt 0.800589 0.554518
vt 0.137668 0.803956
vt 0.738990 0.271171
vt 0.137668 0.536631
vt 0.003847 0.945470
vt 0.738990 0.003847
vt 0.907646 0.688339
vt 0.145361 0.803956
vt 0.536631 0.821842
vt 0.145361 0.536631
vt 0.110904 0.811649
vt 0.536631 0.554518
vt 0.800589 0.688339
vt 0.003847 0.803956
vt 0.252418 0.803956
vt 0.003847 0.536631
vt 0.252418 0.536631
vt 0.003847 0.811649
vt 0.907646 0.696032
vt 0.792896 0.821842
vt 0.544324 0.821842
vt 0.942911 0.413003
vt 0.792896 0.554518
vt 0.544324 0.554518
vt 0.800589 0.696032
vt 0.395117 0.821842
vt 0.685839 0.821842
vt 0.395117 0.554518
vt 0.835854 0.413003
vt 0.685839 0.554518
vt 0.907646 0.829853
vt 0.721104 0.546507
vt 0.678146 0.821842
vt 0.721104 0.279182
vt 0.942911 0.279182
vt 0.678146 0.554518
vt 0.800589 0.829853
vt 0.261296 0.821842
vt 0.828161 0.546507
vt 0.261296 0.554518
vt 0.828161 0.279182
vt 0.835854 0.279182
s 0
usemtl Material.003
f 2/4/1 8/23/1 12/37/1 4/10/1
f 4/11/2 12/38/2 10/30/2 3/7/2
f 3/8/3 1/1/3 2/5/3 4/12/3
f 5/13/4 9/27/4 11/34/4 7/20/4
f 1/2/5 6/16/5 8/24/5 2/6/5
f 7/21/6 11/35/6 12/39/6 8/25/6
f 5/14/7 7/22/7 8/26/7 6/17/7
f 11/36/8 9/28/8 10/31/8 12/40/8
f 9/29/9 5/15/9 6/18/9 10/32/9
f 3/9/10 10/33/10 6/19/10 1/3/10
usemtl Material
f 13/41/4 17/53/4 19/59/4 15/47/4
f 16/50/1 15/48/1 19/60/1 20/62/1
f 20/63/2 19/61/2 17/54/2 18/56/2
f 18/57/3 14/44/3 16/51/3 20/64/3
f 14/45/5 13/42/5 15/49/5 16/52/5
f 18/58/10 17/55/10 13/43/10 14/46/10
usemtl Material.002
f 21/65/4 25/77/4 27/83/4 23/71/4
f 24/74/1 23/72/1 27/84/1 28/86/1
f 28/87/2 27/85/2 25/78/2 26/80/2
f 26/81/3 22/68/3 24/75/3 28/88/3
f 22/69/5 21/66/5 23/73/5 24/76/5
f 26/82/10 25/79/10 21/67/10 22/70/10
