# Blender 3.5.1
# www.blender.org
mtllib CRT Monitor.mtl
o Cube
v -0.830314 1.894734 0.675782
v -0.830314 3.105266 0.675782
v -0.830314 1.894734 -0.675782
v -0.830314 3.105266 -0.675782
v 0.955000 1.647455 0.951870
v 0.955000 3.352545 0.951870
v 0.955000 1.647455 -0.951870
v 0.955000 3.352545 -0.951870
v 1.000000 3.530000 -1.150000
v 1.000000 1.470000 -1.150000
v 1.000000 1.470000 1.150000
v 1.000000 3.530000 1.150000
v 1.000000 3.404045 -1.009370
v 1.000000 1.595955 -1.009370
v 1.000000 1.595955 1.009370
v 1.000000 3.404045 1.009370
v 0.569686 1.470000 -1.150000
v 0.569686 1.470000 1.150000
v 0.569686 3.530000 1.150000
v 0.569686 3.530000 -1.150000
v 0.419686 1.585030 -1.021569
v 0.419686 1.585030 1.021569
v 0.419686 3.414970 1.021569
v 0.419686 3.414970 -1.021569
v 0.000000 1.068300 -0.500000
v 0.000000 1.892300 -0.500000
v 0.353553 1.068300 -0.353553
v 0.353553 1.892300 -0.353553
v 0.500000 1.068300 0.000000
v 0.500000 1.892300 0.000000
v 0.353553 1.068300 0.353553
v 0.353553 1.892300 0.353553
v 0.000000 1.068300 0.500000
v 0.000000 1.892300 0.500000
v -0.353553 1.068300 0.353553
v -0.353553 1.892300 0.353553
v -0.500000 1.068300 0.000000
v -0.500000 1.892300 0.000000
v -0.353553 1.068300 -0.353553
v -0.353553 1.892300 -0.353553
v -1.000000 0.919228 1.000000
v -0.900000 1.099200 0.900000
v -1.000000 0.919228 -1.000000
v -0.900000 1.099200 -0.900000
v 1.000000 0.919228 1.000000
v 0.900000 1.099200 0.900000
v 1.000000 0.919228 -1.000000
v 0.900000 1.099200 -0.900000
vn -1.0000 -0.0000 -0.0000
vn -0.0000 -0.0000 -1.0000
vn 1.0000 -0.0000 -0.0000
vn -0.0000 -0.0000 1.0000
vn -0.0000 -1.0000 -0.0000
vn -0.0000 1.0000 -0.0000
vn 0.7875 -0.0000 0.6163
vn 0.7530 0.6580 -0.0000
vn 0.7530 -0.6580 -0.0000
vn 0.7875 -0.0000 -0.6163
vn -0.6085 -0.7935 -0.0000
vn -0.6504 -0.0000 0.7596
vn -0.6085 0.7935 -0.0000
vn -0.6504 -0.0000 -0.7596
vn -0.2405 -0.9707 -0.0000
vn -0.2666 -0.0000 0.9638
vn -0.2405 0.9707 -0.0000
vn -0.2666 -0.0000 -0.9638
vn 0.3827 -0.0000 -0.9239
vn 0.9239 -0.0000 -0.3827
vn 0.9239 -0.0000 0.3827
vn 0.3827 -0.0000 0.9239
vn -0.3827 -0.0000 0.9239
vn -0.9239 -0.0000 0.3827
vn -0.9239 -0.0000 -0.3827
vn -0.3827 -0.0000 -0.9239
vn -0.8741 0.4857 -0.0000
vn -0.0000 0.4857 -0.8741
vn 0.8741 0.4857 -0.0000
vn -0.0000 0.4857 0.8741
vt 0.772549 0.605202
vt 0.217137 0.389187
vt 0.559323 0.051176
vt 0.772549 0.803229
vt 0.559323 0.249202
vt 0.791147 0.553515
vt 0.574523 0.605202
vt 0.217137 0.587214
vt 0.294569 0.833468
vt 0.574522 0.803229
vt 0.791147 0.355489
vt 0.294569 0.635442
vt 0.573498 0.583754
vt 0.963148 0.008937
vt 0.773573 0.892556
vt 0.573498 0.304825
vt 0.950790 0.287866
vt 0.773573 0.613627
vt 0.294569 0.583754
vt 0.975507 0.008937
vt 0.963148 0.287866
vt 0.294569 0.304825
vt 0.975507 0.287866
vt 0.950789 0.008937
vt 0.290667 0.338524
vt 0.073017 0.975889
vt 0.999488 0.979824
vt 0.546128 0.921766
vt 0.290667 0.675511
vt 0.865701 0.641813
vt 0.999488 0.642837
vt 0.993745 0.641813
vt 0.792172 0.641813
vt 0.865701 0.304825
vt 0.993745 0.304825
vt 0.977859 0.979824
vt 0.792172 0.304825
vt 0.073017 0.638901
vt 0.546128 0.584779
vt 0.977859 0.642837
vt 0.978883 0.959220
vt 0.566733 0.901161
vt 0.986841 0.296291
vt 0.962124 0.000512
vt 0.978883 0.663442
vt 0.973140 0.621208
vt 0.986841 0.000512
vt 0.974482 0.296291
vt 0.973140 0.325430
vt 0.957254 0.959220
vt 0.974482 0.000512
vt 0.784907 0.900981
vt 0.566733 0.605383
vt 0.957254 0.663442
vt 0.962124 0.296291
vt 0.784907 0.605203
vt 0.218161 0.675511
vt 0.938206 0.641813
vt 0.889774 0.979824
vt 0.824706 0.642837
vt 0.864677 0.641813
vt 0.938206 0.304825
vt 0.889774 0.642837
vt 0.792172 0.979824
vt 0.864677 0.304825
vt 0.000512 0.638901
vt 0.792172 0.642837
vt 0.857240 0.979824
vt 0.218162 0.338524
vt 0.000512 0.975889
vt 0.857240 0.642837
vt 0.824706 0.979824
vt 0.921284 0.961007
vt 0.856216 0.661654
vt 0.000512 0.637877
vt 0.511194 0.884132
vt 0.921284 0.661654
vt 0.823682 0.961007
vt 0.000512 0.338524
vt 0.775948 0.000512
vt 0.823682 0.661654
vt 0.888750 0.961007
vt 0.775948 0.299865
vt 0.574523 0.604178
vt 0.888750 0.661654
vt 0.856216 0.961007
vt 0.574523 0.304825
vt 0.511194 0.584779
vt 0.137360 0.798450
vt 0.841314 0.160061
vt 0.074042 0.742989
vt 0.137360 0.933245
vt 0.776972 0.104600
vt 0.841314 0.294856
vt 0.074042 0.798450
vt 0.691328 0.939048
vt 0.074042 0.679671
vt 0.074042 0.933245
vt 0.691328 0.804253
vt 0.817347 0.153375
vt 0.748706 0.939048
vt 0.631901 0.804253
vt 0.114416 0.638901
vt 0.748706 0.804253
vt 0.631901 0.939048
vt 0.874445 0.159036
vt 0.574523 0.804253
vt 0.218161 0.811331
vt 0.171514 0.644562
vt 0.574523 0.939048
vt 0.218161 0.676536
vt 0.914819 0.118267
vt 0.281479 0.811331
vt 0.776972 0.294856
vt 0.211889 0.693338
vt 0.281479 0.676536
vt 0.776972 0.160061
vt 0.914819 0.054949
vt 0.840290 0.294856
vt 0.138384 0.933245
vt 0.211889 0.756656
vt 0.840290 0.160061
vt 0.138384 0.798450
vt 0.874445 0.006173
vt 0.195762 0.933245
vt 0.690303 0.804253
vt 0.171514 0.797425
vt 0.195762 0.798450
vt 0.817347 0.000512
vt 0.690303 0.939048
vt 0.632925 0.804253
vt 0.904632 0.160061
vt 0.114416 0.791764
vt 0.776972 0.041282
vt 0.632925 0.939048
vt 0.904632 0.294856
vt 0.915844 0.000512
vt 0.939231 0.641813
vt 0.000512 0.000512
vt 0.949765 0.015164
vt 0.972116 0.624963
vt 0.558298 0.000512
vt 0.915844 0.293545
vt 0.512218 0.584779
vt 0.293545 0.000512
vt 0.949765 0.278893
vt 0.545104 0.601628
vt 0.294569 0.000512
vt 0.922308 0.935870
vt 0.939231 0.304825
vt 0.000512 0.337500
vt 0.956230 0.921218
vt 0.972116 0.321675
vt 0.558298 0.303801
vt 0.512218 0.921766
vt 0.922308 0.642837
vt 0.293545 0.337500
vt 0.545104 0.904917
vt 0.956230 0.657489
vt 0.294569 0.303801
s 0
usemtl Material.001
f 1/1/1 2/4/1 4/10/1 3/7/1
f 17/57/2 20/69/2 9/25/2 10/29/2
f 7/19/3 8/22/3 6/16/3 5/13/3
f 11/33/4 12/37/4 19/65/4 18/61/4
f 17/58/5 10/30/5 11/34/5 18/62/5
f 9/26/6 20/70/6 19/66/6 12/38/6
f 13/41/3 14/45/3 10/31/3 9/27/3
f 14/46/3 15/49/3 11/35/3 10/32/3
f 16/53/3 13/42/3 9/28/3 12/39/3
f 15/50/3 16/54/3 12/40/3 11/36/3
f 8/23/7 7/20/7 14/47/7 13/43/7
f 7/21/8 5/14/8 15/51/8 14/48/8
f 6/17/9 8/24/9 13/44/9 16/55/9
f 5/15/10 6/18/10 16/56/10 15/52/10
f 22/77/11 21/73/11 17/59/11 18/63/11
f 23/81/12 22/78/12 18/64/12 19/67/12
f 24/85/13 23/82/13 19/68/13 20/71/13
f 21/74/14 24/86/14 20/72/14 17/60/14
f 1/2/15 3/8/15 21/75/15 22/79/15
f 2/5/16 1/3/16 22/80/16 23/83/16
f 4/11/17 2/6/17 23/84/17 24/87/17
f 3/9/18 4/12/18 24/88/18 21/76/18
f 25/89/19 26/92/19 28/98/19 27/95/19
f 27/96/20 28/99/20 30/104/20 29/101/20
f 29/102/21 30/105/21 32/110/21 31/107/21
f 31/108/22 32/111/22 34/116/22 33/113/22
f 33/114/23 34/117/23 36/122/23 35/119/23
f 35/120/24 36/123/24 38/128/24 37/125/24
f 28/100/6 26/93/6 40/134/6 38/129/6 36/124/6 34/118/6 32/112/6 30/106/6
f 37/126/25 38/130/25 40/135/25 39/131/25
f 39/132/26 40/136/26 26/94/26 25/90/26
f 25/91/5 27/97/5 29/103/5 31/109/5 33/115/5 35/121/5 37/127/5 39/133/5
f 41/137/27 42/140/27 44/146/27 43/143/27
f 43/144/28 44/147/28 48/158/28 47/155/28
f 47/156/29 48/159/29 46/152/29 45/149/29
f 45/150/30 46/153/30 42/141/30 41/138/30
f 43/145/5 47/157/5 45/151/5 41/139/5
f 48/160/6 44/148/6 42/142/6 46/154/6
