# Blender 3.5.1
# www.blender.org
mtllib Cubicle Wall.mtl
o Cube.007
v -1.160000 5.882944 2.650000
v -1.160000 5.882944 -2.650000
v -1.360000 5.882944 2.650000
v -1.360000 5.882944 -2.650000
v -1.160000 5.582943 2.650000
v -1.160000 5.582943 -2.650000
v -1.360000 5.582943 2.650000
v -1.360000 5.582943 -2.650000
v -1.200000 0.532943 2.770000
v -1.340000 0.532943 2.770000
v -1.200000 5.872943 2.770000
v -1.340000 5.872943 2.770000
v -1.200000 0.532943 -2.770000
v -1.340000 0.532943 -2.770000
v -1.200000 5.872943 -2.770000
v -1.340000 5.872943 -2.770000
v -1.260000 3.272943 2.670000
v -1.260000 3.132943 2.670000
v -1.260000 3.272943 -2.670000
v -1.260000 3.132943 -2.670000
v 1.260000 3.272943 2.670000
v 1.260000 3.132943 2.670000
v 1.260000 3.272943 -2.670000
v 1.260000 3.132943 -2.670000
v -1.260000 0.532943 -2.630000
v -1.260000 0.532943 -2.770000
v -1.260000 5.872943 -2.630000
v -1.260000 5.872943 -2.770000
v 1.260000 0.532943 -2.630000
v 1.260000 0.532943 -2.770000
v 1.260000 5.872943 -2.630000
v 1.260000 5.872943 -2.770000
v -1.260000 0.532943 2.770000
v -1.260000 0.532943 2.630000
v -1.260000 5.872943 2.770000
v -1.260000 5.872943 2.630000
v 1.260000 0.532943 2.770000
v 1.260000 0.532943 2.630000
v 1.260000 5.872943 2.770000
v 1.260000 5.872943 2.630000
v -1.410000 0.472943 -2.590000
v -1.410000 2.472943 -2.590000
v -1.410000 0.472943 -2.810000
v -1.410000 2.472943 -2.810000
v 1.310000 0.472943 -2.590000
v 1.310000 2.472943 -2.590000
v 1.310000 0.472943 -2.810000
v 1.310000 2.472943 -2.810000
v -1.190000 0.472943 2.800000
v -1.190000 2.472943 2.800000
v -1.410000 0.472943 2.800000
v -1.410000 2.472943 2.800000
v -1.190000 0.472943 -2.800000
v -1.190000 2.472943 -2.800000
v -1.410000 0.472943 -2.800000
v -1.410000 2.472943 -2.800000
v -1.410000 0.472943 2.810000
v -1.410000 2.472943 2.810000
v -1.410000 0.472943 2.590000
v -1.410000 2.472943 2.590000
v 1.310000 0.472943 2.810000
v 1.310000 2.472943 2.810000
v 1.310000 0.472943 2.590000
v 1.310000 2.472943 2.590000
v 0.990000 1.382943 -2.600000
v 0.990000 5.882943 -2.600000
v 0.990000 1.382943 -2.800000
v 0.990000 5.882943 -2.800000
v 1.290000 1.382943 -2.600000
v 1.290000 5.882943 -2.600000
v 1.290000 1.382943 -2.800000
v 1.290000 5.882943 -2.800000
v -1.360000 1.382943 2.800000
v -1.360000 5.882943 2.800000
v -1.360000 1.382943 2.600000
v -1.360000 5.882943 2.600000
v -1.060000 1.382943 2.800000
v -1.060000 5.882943 2.800000
v -1.060000 1.382943 2.600000
v -1.060000 5.882943 2.600000
v 0.990000 1.382943 2.800000
v 0.990000 5.882943 2.800000
v 0.990000 1.382943 2.600000
v 0.990000 5.882943 2.600000
v 1.290000 1.382943 2.800000
v 1.290000 5.882943 2.800000
v 1.290000 1.382943 2.600000
v 1.290000 5.882943 2.600000
v -1.260000 0.381999 2.600000
v -1.260000 0.538000 2.600000
v -1.189289 0.381999 2.629290
v -1.189289 0.538000 2.629290
v -1.160000 0.381999 2.700000
v -1.160000 0.538000 2.700000
v -1.189289 0.381999 2.770711
v -1.189289 0.538000 2.770711
v -1.260000 0.381999 2.800000
v -1.260000 0.538000 2.800000
v -1.330711 0.381999 2.770711
v -1.330711 0.538000 2.770711
v -1.360000 0.381999 2.700000
v -1.360000 0.538000 2.700000
v -1.330711 0.381999 2.629290
v -1.330711 0.538000 2.629290
v 1.140000 0.381999 2.600000
v 1.140000 0.538000 2.600000
v 1.210711 0.381999 2.629290
v 1.210711 0.538000 2.629289
v 1.240000 0.381999 2.700000
v 1.240000 0.538000 2.700000
v 1.210711 0.381999 2.770711
v 1.210711 0.538000 2.770711
v 1.140000 0.381999 2.800000
v 1.140000 0.538000 2.800000
v 1.069289 0.381999 2.770711
v 1.069289 0.538000 2.770711
v 1.040000 0.381999 2.700000
v 1.040000 0.538000 2.700000
v 1.069289 0.381999 2.629290
v 1.069289 0.538000 2.629290
v 1.140000 0.381999 -2.800000
v 1.140000 0.538000 -2.800000
v 1.210711 0.381999 -2.770711
v 1.210711 0.538000 -2.770711
v 1.240000 0.381999 -2.700000
v 1.240000 0.538000 -2.700001
v 1.210711 0.381999 -2.629290
v 1.210711 0.538000 -2.629290
v 1.140000 0.381999 -2.600000
v 1.140000 0.538000 -2.600000
v 1.069289 0.381999 -2.629290
v 1.069289 0.538000 -2.629290
v 1.040000 0.381999 -2.700000
v 1.040000 0.538000 -2.700000
v 1.069289 0.381999 -2.770711
v 1.069289 0.538000 -2.770711
v -1.260000 0.381999 -2.800000
v -1.260000 0.538000 -2.800000
v -1.189289 0.381999 -2.770711
v -1.189289 0.538000 -2.770711
v -1.160000 0.381999 -2.700000
v -1.160000 0.538000 -2.700000
v -1.189289 0.381999 -2.629290
v -1.189289 0.538000 -2.629290
v -1.260000 0.381999 -2.600000
v -1.260000 0.538000 -2.600000
v -1.330711 0.381999 -2.629290
v -1.330711 0.538000 -2.629290
v -1.360000 0.381999 -2.700000
v -1.360000 0.538000 -2.700000
v -1.330711 0.381999 -2.770711
v -1.330711 0.538000 -2.770711
v -1.360000 1.382943 -2.600000
v -1.360000 5.882943 -2.600000
v -1.360000 1.382943 -2.800000
v -1.360000 5.882943 -2.800000
v -1.060000 1.382943 -2.600000
v -1.060000 5.882943 -2.600000
v -1.060000 1.382943 -2.800000
v -1.060000 5.882943 -2.800000
v -1.070000 5.882944 -2.600000
v 1.010000 5.882944 -2.600000
v -1.070000 5.882944 -2.800000
v 1.010000 5.882944 -2.800000
v -1.070000 5.582943 -2.600000
v 1.010000 5.582943 -2.600000
v -1.070000 5.582943 -2.800000
v 1.010000 5.582943 -2.800000
v -1.070000 5.882944 2.800000
v 1.010000 5.882944 2.800000
v -1.070000 5.882944 2.600000
v 1.010000 5.882944 2.600000
v -1.070000 5.582943 2.800000
v 1.010000 5.582943 2.800000
v -1.070000 5.582943 2.600000
v 1.010000 5.582943 2.600000
vn -0.0000 1.0000 -0.0000
vn -1.0000 -0.0000 -0.0000
vn -0.0000 -1.0000 -0.0000
vn 1.0000 -0.0000 -0.0000
vn -0.0000 -0.0000 1.0000
vn -0.0000 -0.0000 -1.0000
vn 0.3827 -0.0000 -0.9239
vn 0.9239 -0.0000 -0.3827
vn 0.9239 -0.0000 0.3827
vn 0.3827 -0.0000 0.9239
vn -0.3827 -0.0000 0.9239
vn -0.9239 -0.0000 0.3827
vn -0.9239 -0.0000 -0.3827
vn -0.3827 -0.0000 -0.9239
vt 0.375000 0.000000
vt 0.375000 1.000000
vt 0.125000 0.750000
vt 0.625000 0.000000
vt 0.625000 1.000000
vt 0.875000 0.750000
vt 0.375000 0.250000
vt 0.125000 0.500000
vt 0.625000 0.250000
vt 0.875000 0.500000
vt 0.375000 0.750000
vt 0.625000 0.750000
vt 0.375000 0.500000
vt 0.625000 0.500000
vt 0.375000 0.000000
vt 0.375000 1.000000
vt 0.125000 0.750000
vt 0.625000 0.000000
vt 0.625000 1.000000
vt 0.875000 0.750000
vt 0.375000 0.250000
vt 0.125000 0.500000
vt 0.625000 0.250000
vt 0.875000 0.500000
vt 0.375000 0.750000
vt 0.625000 0.750000
vt 0.375000 0.500000
vt 0.625000 0.500000
vt 0.375000 0.000000
vt 0.375000 1.000000
vt 0.125000 0.750000
vt 0.625000 0.000000
vt 0.625000 1.000000
vt 0.875000 0.750000
vt 0.375000 0.250000
vt 0.125000 0.500000
vt 0.625000 0.250000
vt 0.875000 0.500000
vt 0.375000 0.750000
vt 0.625000 0.750000
vt 0.375000 0.500000
vt 0.625000 0.500000
vt 0.375000 0.000000
vt 0.375000 1.000000
vt 0.125000 0.750000
vt 0.625000 0.000000
vt 0.625000 1.000000
vt 0.875000 0.750000
vt 0.375000 0.250000
vt 0.125000 0.500000
vt 0.625000 0.250000
vt 0.875000 0.500000
vt 0.375000 0.750000
vt 0.625000 0.750000
vt 0.375000 0.500000
vt 0.625000 0.500000
vt 0.375000 0.000000
vt 0.375000 1.000000
vt 0.125000 0.750000
vt 0.625000 0.000000
vt 0.625000 1.000000
vt 0.875000 0.750000
vt 0.375000 0.250000
vt 0.125000 0.500000
vt 0.625000 0.250000
vt 0.875000 0.500000
vt 0.375000 0.750000
vt 0.625000 0.750000
vt 0.375000 0.500000
vt 0.625000 0.500000
vt 0.375000 0.000000
vt 0.375000 1.000000
vt 0.125000 0.750000
vt 0.625000 0.000000
vt 0.625000 1.000000
vt 0.875000 0.750000
vt 0.375000 0.250000
vt 0.125000 0.500000
vt 0.625000 0.250000
vt 0.875000 0.500000
vt 0.375000 0.750000
vt 0.625000 0.750000
vt 0.375000 0.500000
vt 0.625000 0.500000
vt 0.375000 0.000000
vt 0.375000 1.000000
vt 0.125000 0.750000
vt 0.625000 0.000000
vt 0.625000 1.000000
vt 0.875000 0.750000
vt 0.375000 0.250000
vt 0.125000 0.500000
vt 0.625000 0.250000
vt 0.875000 0.500000
vt 0.375000 0.750000
vt 0.625000 0.750000
vt 0.375000 0.500000
vt 0.625000 0.500000
vt 0.375000 0.000000
vt 0.375000 1.000000
vt 0.125000 0.750000
vt 0.625000 0.000000
vt 0.625000 1.000000
vt 0.875000 0.750000
vt 0.375000 0.250000
vt 0.125000 0.500000
vt 0.625000 0.250000
vt 0.875000 0.500000
vt 0.375000 0.750000
vt 0.625000 0.750000
vt 0.375000 0.500000
vt 0.625000 0.500000
vt 0.375000 0.000000
vt 0.375000 1.000000
vt 0.125000 0.750000
vt 0.625000 0.000000
vt 0.625000 1.000000
vt 0.875000 0.750000
vt 0.375000 0.250000
vt 0.125000 0.500000
vt 0.625000 0.250000
vt 0.875000 0.500000
vt 0.375000 0.750000
vt 0.625000 0.750000
vt 0.375000 0.500000
vt 0.625000 0.500000
vt 0.375000 0.000000
vt 0.375000 1.000000
vt 0.125000 0.750000
vt 0.625000 0.000000
vt 0.625000 1.000000
vt 0.875000 0.750000
vt 0.375000 0.250000
vt 0.125000 0.500000
vt 0.625000 0.250000
vt 0.875000 0.500000
vt 0.375000 0.750000
vt 0.625000 0.750000
vt 0.375000 0.500000
vt 0.625000 0.500000
vt 0.375000 0.000000
vt 0.375000 1.000000
vt 0.125000 0.750000
vt 0.625000 0.000000
vt 0.625000 1.000000
vt 0.875000 0.750000
vt 0.375000 0.250000
vt 0.125000 0.500000
vt 0.625000 0.250000
vt 0.875000 0.500000
vt 0.375000 0.750000
vt 0.625000 0.750000
vt 0.375000 0.500000
vt 0.625000 0.500000
vt 1.000000 0.500000
vt 0.000000 0.500000
vt 0.750000 0.490000
vt 1.000000 1.000000
vt 0.250000 0.490000
vt 0.000000 1.000000
vt 0.875000 0.500000
vt 0.919706 0.419706
vt 0.875000 1.000000
vt 0.419706 0.419706
vt 0.750000 0.500000
vt 0.990000 0.250000
vt 0.750000 1.000000
vt 0.490000 0.250000
vt 0.625000 0.500000
vt 0.919706 0.080294
vt 0.625000 1.000000
vt 0.419706 0.080294
vt 0.500000 0.500000
vt 0.750000 0.010000
vt 0.500000 1.000000
vt 0.250000 0.010000
vt 0.375000 0.500000
vt 0.580294 0.080294
vt 0.375000 1.000000
vt 0.080294 0.080294
vt 0.250000 0.500000
vt 0.510000 0.250000
vt 0.010000 0.250000
vt 0.250000 1.000000
vt 0.125000 0.500000
vt 0.580294 0.419706
vt 0.080294 0.419706
vt 0.125000 1.000000
vt 1.000000 0.500000
vt 0.000000 0.500000
vt 0.750000 0.490000
vt 1.000000 1.000000
vt 0.250000 0.490000
vt 0.000000 1.000000
vt 0.875000 0.500000
vt 0.919706 0.419706
vt 0.875000 1.000000
vt 0.419706 0.419706
vt 0.750000 0.500000
vt 0.990000 0.250000
vt 0.750000 1.000000
vt 0.490000 0.250000
vt 0.625000 0.500000
vt 0.919706 0.080294
vt 0.625000 1.000000
vt 0.419706 0.080294
vt 0.500000 0.500000
vt 0.750000 0.010000
vt 0.500000 1.000000
vt 0.250000 0.010000
vt 0.375000 0.500000
vt 0.580294 0.080294
vt 0.375000 1.000000
vt 0.080294 0.080294
vt 0.250000 0.500000
vt 0.510000 0.250000
vt 0.010000 0.250000
vt 0.250000 1.000000
vt 0.125000 0.500000
vt 0.580294 0.419706
vt 0.080294 0.419706
vt 0.125000 1.000000
vt 1.000000 0.500000
vt 0.000000 0.500000
vt 0.750000 0.490000
vt 1.000000 1.000000
vt 0.250000 0.490000
vt 0.000000 1.000000
vt 0.875000 0.500000
vt 0.919706 0.419706
vt 0.875000 1.000000
vt 0.419706 0.419706
vt 0.750000 0.500000
vt 0.990000 0.250000
vt 0.750000 1.000000
vt 0.490000 0.250000
vt 0.625000 0.500000
vt 0.919706 0.080294
vt 0.625000 1.000000
vt 0.419706 0.080294
vt 0.500000 0.500000
vt 0.750000 0.010000
vt 0.500000 1.000000
vt 0.250000 0.010000
vt 0.375000 0.500000
vt 0.580294 0.080294
vt 0.375000 1.000000
vt 0.080294 0.080294
vt 0.250000 0.500000
vt 0.510000 0.250000
vt 0.010000 0.250000
vt 0.250000 1.000000
vt 0.125000 0.500000
vt 0.580294 0.419706
vt 0.080294 0.419706
vt 0.125000 1.000000
vt 1.000000 0.500000
vt 0.000000 0.500000
vt 0.750000 0.490000
vt 1.000000 1.000000
vt 0.250000 0.490000
vt 0.000000 1.000000
vt 0.875000 0.500000
vt 0.919706 0.419706
vt 0.875000 1.000000
vt 0.419706 0.419706
vt 0.750000 0.500000
vt 0.990000 0.250000
vt 0.750000 1.000000
vt 0.490000 0.250000
vt 0.625000 0.500000
vt 0.919706 0.080294
vt 0.625000 1.000000
vt 0.419706 0.080294
vt 0.500000 0.500000
vt 0.750000 0.010000
vt 0.500000 1.000000
vt 0.250000 0.010000
vt 0.375000 0.500000
vt 0.580294 0.080294
vt 0.375000 1.000000
vt 0.080294 0.080294
vt 0.250000 0.500000
vt 0.510000 0.250000
vt 0.010000 0.250000
vt 0.250000 1.000000
vt 0.125000 0.500000
vt 0.580294 0.419706
vt 0.080294 0.419706
vt 0.125000 1.000000
vt 0.375000 0.000000
vt 0.375000 1.000000
vt 0.125000 0.750000
vt 0.625000 0.000000
vt 0.625000 1.000000
vt 0.875000 0.750000
vt 0.375000 0.250000
vt 0.125000 0.500000
vt 0.625000 0.250000
vt 0.875000 0.500000
vt 0.375000 0.750000
vt 0.625000 0.750000
vt 0.375000 0.500000
vt 0.625000 0.500000
vt 0.375000 0.000000
vt 0.375000 1.000000
vt 0.125000 0.750000
vt 0.625000 0.000000
vt 0.625000 1.000000
vt 0.875000 0.750000
vt 0.375000 0.250000
vt 0.125000 0.500000
vt 0.625000 0.250000
vt 0.875000 0.500000
vt 0.375000 0.750000
vt 0.625000 0.750000
vt 0.375000 0.500000
vt 0.625000 0.500000
vt 0.375000 0.000000
vt 0.375000 1.000000
vt 0.125000 0.750000
vt 0.625000 0.000000
vt 0.625000 1.000000
vt 0.875000 0.750000
vt 0.375000 0.250000
vt 0.125000 0.500000
vt 0.625000 0.250000
vt 0.875000 0.500000
vt 0.375000 0.750000
vt 0.625000 0.750000
vt 0.375000 0.500000
vt 0.625000 0.500000
s 0
f 1/1/1 2/4/1 4/9/1 3/7/1
f 3/7/2 4/9/2 8/14/2 7/13/2
f 7/13/3 8/14/3 6/12/3 5/11/3
f 5/11/4 6/12/4 2/5/4 1/2/4
f 3/8/5 7/13/5 5/11/5 1/3/5
f 8/14/6 4/10/6 2/6/6 6/12/6
f 9/15/6 10/18/6 12/23/6 11/21/6
f 11/21/3 12/23/3 16/28/3 15/27/3
f 15/27/5 16/28/5 14/26/5 13/25/5
f 13/25/1 14/26/1 10/19/1 9/16/1
f 11/22/2 15/27/2 13/25/2 9/17/2
f 16/28/4 12/24/4 10/20/4 14/26/4
f 17/29/4 18/32/4 20/37/4 19/35/4
f 19/35/5 20/37/5 24/42/5 23/41/5
f 23/41/2 24/42/2 22/40/2 21/39/2
f 21/39/6 22/40/6 18/33/6 17/30/6
f 19/36/3 23/41/3 21/39/3 17/31/3
f 24/42/1 20/38/1 18/34/1 22/40/1
f 25/43/4 26/46/4 28/51/4 27/49/4
f 27/49/3 28/51/3 32/56/3 31/55/3
f 31/55/2 32/56/2 30/54/2 29/53/2
f 29/53/1 30/54/1 26/47/1 25/44/1
f 27/50/6 31/55/6 29/53/6 25/45/6
f 32/56/5 28/52/5 26/48/5 30/54/5
f 33/57/4 34/60/4 36/65/4 35/63/4
f 35/63/3 36/65/3 40/70/3 39/69/3
f 39/69/2 40/70/2 38/68/2 37/67/2
f 37/67/1 38/68/1 34/61/1 33/58/1
f 35/64/6 39/69/6 37/67/6 33/59/6
f 40/70/5 36/66/5 34/62/5 38/68/5
f 41/71/2 42/74/2 44/79/2 43/77/2
f 43/77/6 44/79/6 48/84/6 47/83/6
f 47/83/4 48/84/4 46/82/4 45/81/4
f 45/81/5 46/82/5 42/75/5 41/72/5
f 43/78/3 47/83/3 45/81/3 41/73/3
f 48/84/1 44/80/1 42/76/1 46/82/1
f 49/85/5 50/88/5 52/93/5 51/91/5
f 51/91/2 52/93/2 56/98/2 55/97/2
f 55/97/6 56/98/6 54/96/6 53/95/6
f 53/95/4 54/96/4 50/89/4 49/86/4
f 51/92/3 55/97/3 53/95/3 49/87/3
f 56/98/1 52/94/1 50/90/1 54/96/1
f 57/99/2 58/102/2 60/107/2 59/105/2
f 59/105/6 60/107/6 64/112/6 63/111/6
f 63/111/4 64/112/4 62/110/4 61/109/4
f 61/109/5 62/110/5 58/103/5 57/100/5
f 59/106/3 63/111/3 61/109/3 57/101/3
f 64/112/1 60/108/1 58/104/1 62/110/1
f 65/113/2 66/116/2 68/121/2 67/119/2
f 67/119/6 68/121/6 72/126/6 71/125/6
f 71/125/4 72/126/4 70/124/4 69/123/4
f 69/123/5 70/124/5 66/117/5 65/114/5
f 67/120/3 71/125/3 69/123/3 65/115/3
f 72/126/1 68/122/1 66/118/1 70/124/1
f 73/127/2 74/130/2 76/135/2 75/133/2
f 75/133/6 76/135/6 80/140/6 79/139/6
f 79/139/4 80/140/4 78/138/4 77/137/4
f 77/137/5 78/138/5 74/131/5 73/128/5
f 75/134/3 79/139/3 77/137/3 73/129/3
f 80/140/1 76/136/1 74/132/1 78/138/1
f 81/141/2 82/144/2 84/149/2 83/147/2
f 83/147/6 84/149/6 88/154/6 87/153/6
f 87/153/4 88/154/4 86/152/4 85/151/4
f 85/151/5 86/152/5 82/145/5 81/142/5
f 83/148/3 87/153/3 85/151/3 81/143/3
f 88/154/1 84/150/1 82/146/1 86/152/1
f 89/155/7 90/158/7 92/163/7 91/161/7
f 91/161/8 92/163/8 94/167/8 93/165/8
f 93/165/9 94/167/9 96/171/9 95/169/9
f 95/169/10 96/171/10 98/175/10 97/173/10
f 97/173/11 98/175/11 100/179/11 99/177/11
f 99/177/12 100/179/12 102/184/12 101/181/12
f 92/164/1 90/159/1 104/187/1 102/183/1 100/180/1 98/176/1 96/172/1 94/168/1
f 101/181/13 102/184/13 104/188/13 103/185/13
f 103/185/14 104/188/14 90/160/14 89/156/14
f 89/157/3 91/162/3 93/166/3 95/170/3 97/174/3 99/178/3 101/182/3 103/186/3
f 105/189/7 106/192/7 108/197/7 107/195/7
f 107/195/8 108/197/8 110/201/8 109/199/8
f 109/199/9 110/201/9 112/205/9 111/203/9
f 111/203/10 112/205/10 114/209/10 113/207/10
f 113/207/11 114/209/11 116/213/11 115/211/11
f 115/211/12 116/213/12 118/218/12 117/215/12
f 108/198/1 106/193/1 120/221/1 118/217/1 116/214/1 114/210/1 112/206/1 110/202/1
f 117/215/13 118/218/13 120/222/13 119/219/13
f 119/219/14 120/222/14 106/194/14 105/190/14
f 105/191/3 107/196/3 109/200/3 111/204/3 113/208/3 115/212/3 117/216/3 119/220/3
f 121/223/7 122/226/7 124/231/7 123/229/7
f 123/229/8 124/231/8 126/235/8 125/233/8
f 125/233/9 126/235/9 128/239/9 127/237/9
f 127/237/10 128/239/10 130/243/10 129/241/10
f 129/241/11 130/243/11 132/247/11 131/245/11
f 131/245/12 132/247/12 134/252/12 133/249/12
f 124/232/1 122/227/1 136/255/1 134/251/1 132/248/1 130/244/1 128/240/1 126/236/1
f 133/249/13 134/252/13 136/256/13 135/253/13
f 135/253/14 136/256/14 122/228/14 121/224/14
f 121/225/3 123/230/3 125/234/3 127/238/3 129/242/3 131/246/3 133/250/3 135/254/3
f 137/257/7 138/260/7 140/265/7 139/263/7
f 139/263/8 140/265/8 142/269/8 141/267/8
f 141/267/9 142/269/9 144/273/9 143/271/9
f 143/271/10 144/273/10 146/277/10 145/275/10
f 145/275/11 146/277/11 148/281/11 147/279/11
f 147/279/12 148/281/12 150/286/12 149/283/12
f 140/266/1 138/261/1 152/289/1 150/285/1 148/282/1 146/278/1 144/274/1 142/270/1
f 149/283/13 150/286/13 152/290/13 151/287/13
f 151/287/14 152/290/14 138/262/14 137/258/14
f 137/259/3 139/264/3 141/268/3 143/272/3 145/276/3 147/280/3 149/284/3 151/288/3
f 153/291/2 154/294/2 156/299/2 155/297/2
f 155/297/6 156/299/6 160/304/6 159/303/6
f 159/303/4 160/304/4 158/302/4 157/301/4
f 157/301/5 158/302/5 154/295/5 153/292/5
f 155/298/3 159/303/3 157/301/3 153/293/3
f 160/304/1 156/300/1 154/296/1 158/302/1
f 161/305/1 162/308/1 164/313/1 163/311/1
f 163/311/6 164/313/6 168/318/6 167/317/6
f 167/317/3 168/318/3 166/316/3 165/315/3
f 165/315/5 166/316/5 162/309/5 161/306/5
f 163/312/2 167/317/2 165/315/2 161/307/2
f 168/318/4 164/314/4 162/310/4 166/316/4
f 169/319/1 170/322/1 172/327/1 171/325/1
f 171/325/6 172/327/6 176/332/6 175/331/6
f 175/331/3 176/332/3 174/330/3 173/329/3
f 173/329/5 174/330/5 170/323/5 169/320/5
f 171/326/2 175/331/2 173/329/2 169/321/2
f 176/332/4 172/328/4 170/324/4 174/330/4
