# Blender 3.5.1
# www.blender.org
mtllib Cubicle Wall.mtl
o Cube.007
v -1.160000 5.882944 2.650000
v -1.160000 5.882944 -2.650000
v -1.360000 5.882944 2.650000
v -1.360000 5.882944 -2.650000
v -1.160000 5.582943 2.650000
v -1.160000 5.582943 -2.650000
v -1.360000 5.582943 2.650000
v -1.360000 5.582943 -2.650000
v -1.200000 0.532943 2.770000
v -1.340000 0.532943 2.770000
v -1.200000 5.872943 2.770000
v -1.340000 5.872943 2.770000
v -1.200000 0.532943 -2.770000
v -1.340000 0.532943 -2.770000
v -1.200000 5.872943 -2.770000
v -1.340000 5.872943 -2.770000
v -1.260000 3.272943 2.670000
v -1.260000 3.132943 2.670000
v -1.260000 3.272943 -2.670000
v -1.260000 3.132943 -2.670000
v 1.260000 3.272943 2.670000
v 1.260000 3.132943 2.670000
v 1.260000 3.272943 -2.670000
v 1.260000 3.132943 -2.670000
v -1.260000 0.532943 -2.630000
v -1.260000 0.532943 -2.770000
v -1.260000 5.872943 -2.630000
v -1.260000 5.872943 -2.770000
v 1.260000 0.532943 -2.630000
v 1.260000 0.532943 -2.770000
v 1.260000 5.872943 -2.630000
v 1.260000 5.872943 -2.770000
v -1.260000 0.532943 2.770000
v -1.260000 0.532943 2.630000
v -1.260000 5.872943 2.770000
v -1.260000 5.872943 2.630000
v 1.260000 0.532943 2.770000
v 1.260000 0.532943 2.630000
v 1.260000 5.872943 2.770000
v 1.260000 5.872943 2.630000
v -1.410000 0.472943 -2.590000
v -1.410000 2.472943 -2.590000
v -1.410000 0.472943 -2.810000
v -1.410000 2.472943 -2.810000
v 1.310000 0.472943 -2.590000
v 1.310000 2.472943 -2.590000
v 1.310000 0.472943 -2.810000
v 1.310000 2.472943 -2.810000
v -1.190000 0.472943 2.800000
v -1.190000 2.472943 2.800000
v -1.410000 0.472943 2.800000
v -1.410000 2.472943 2.800000
v -1.190000 0.472943 -2.800000
v -1.190000 2.472943 -2.800000
v -1.410000 0.472943 -2.800000
v -1.410000 2.472943 -2.800000
v -1.410000 0.472943 2.810000
v -1.410000 2.472943 2.810000
v -1.410000 0.472943 2.590000
v -1.410000 2.472943 2.590000
v 1.310000 0.472943 2.810000
v 1.310000 2.472943 2.810000
v 1.310000 0.472943 2.590000
v 1.310000 2.472943 2.590000
v 0.990000 1.382943 -2.600000
v 0.990000 5.882943 -2.600000
v 0.990000 1.382943 -2.800000
v 0.990000 5.882943 -2.800000
v 1.290000 1.382943 -2.600000
v 1.290000 5.882943 -2.600000
v 1.290000 1.382943 -2.800000
v 1.290000 5.882943 -2.800000
v -1.360000 1.382943 2.800000
v -1.360000 5.882943 2.800000
v -1.360000 1.382943 2.600000
v -1.360000 5.882943 2.600000
v -1.060000 1.382943 2.800000
v -1.060000 5.882943 2.800000
v -1.060000 1.382943 2.600000
v -1.060000 5.882943 2.600000
v 0.990000 1.382943 2.800000
v 0.990000 5.882943 2.800000
v 0.990000 1.382943 2.600000
v 0.990000 5.882943 2.600000
v 1.290000 1.382943 2.800000
v 1.290000 5.882943 2.800000
v 1.290000 1.382943 2.600000
v 1.290000 5.882943 2.600000
v -1.260000 0.381999 2.600000
v -1.260000 0.538000 2.600000
v -1.189289 0.381999 2.629290
v -1.189289 0.538000 2.629290
v -1.160000 0.381999 2.700000
v -1.160000 0.538000 2.700000
v -1.189289 0.381999 2.770711
v -1.189289 0.538000 2.770711
v -1.260000 0.381999 2.800000
v -1.260000 0.538000 2.800000
v -1.330711 0.381999 2.770711
v -1.330711 0.538000 2.770711
v -1.360000 0.381999 2.700000
v -1.360000 0.538000 2.700000
v -1.330711 0.381999 2.629290
v -1.330711 0.538000 2.629290
v 1.140000 0.381999 2.600000
v 1.140000 0.538000 2.600000
v 1.210711 0.381999 2.629290
v 1.210711 0.538000 2.629289
v 1.240000 0.381999 2.700000
v 1.240000 0.538000 2.700000
v 1.210711 0.381999 2.770711
v 1.210711 0.538000 2.770711
v 1.140000 0.381999 2.800000
v 1.140000 0.538000 2.800000
v 1.069289 0.381999 2.770711
v 1.069289 0.538000 2.770711
v 1.040000 0.381999 2.700000
v 1.040000 0.538000 2.700000
v 1.069289 0.381999 2.629290
v 1.069289 0.538000 2.629290
v 1.140000 0.381999 -2.800000
v 1.140000 0.538000 -2.800000
v 1.210711 0.381999 -2.770711
v 1.210711 0.538000 -2.770711
v 1.240000 0.381999 -2.700000
v 1.240000 0.538000 -2.700001
v 1.210711 0.381999 -2.629290
v 1.210711 0.538000 -2.629290
v 1.140000 0.381999 -2.600000
v 1.140000 0.538000 -2.600000
v 1.069289 0.381999 -2.629290
v 1.069289 0.538000 -2.629290
v 1.040000 0.381999 -2.700000
v 1.040000 0.538000 -2.700000
v 1.069289 0.381999 -2.770711
v 1.069289 0.538000 -2.770711
v -1.260000 0.381999 -2.800000
v -1.260000 0.538000 -2.800000
v -1.189289 0.381999 -2.770711
v -1.189289 0.538000 -2.770711
v -1.160000 0.381999 -2.700000
v -1.160000 0.538000 -2.700000
v -1.189289 0.381999 -2.629290
v -1.189289 0.538000 -2.629290
v -1.260000 0.381999 -2.600000
v -1.260000 0.538000 -2.600000
v -1.330711 0.381999 -2.629290
v -1.330711 0.538000 -2.629290
v -1.360000 0.381999 -2.700000
v -1.360000 0.538000 -2.700000
v -1.330711 0.381999 -2.770711
v -1.330711 0.538000 -2.770711
v -1.360000 1.382943 -2.600000
v -1.360000 5.882943 -2.600000
v -1.360000 1.382943 -2.800000
v -1.360000 5.882943 -2.800000
v -1.060000 1.382943 -2.600000
v -1.060000 5.882943 -2.600000
v -1.060000 1.382943 -2.800000
v -1.060000 5.882943 -2.800000
v -1.070000 5.882944 -2.600000
v 1.010000 5.882944 -2.600000
v -1.070000 5.882944 -2.800000
v 1.010000 5.882944 -2.800000
v -1.070000 5.582943 -2.600000
v 1.010000 5.582943 -2.600000
v -1.070000 5.582943 -2.800000
v 1.010000 5.582943 -2.800000
v -1.070000 5.882944 2.800000
v 1.010000 5.882944 2.800000
v -1.070000 5.882944 2.600000
v 1.010000 5.882944 2.600000
v -1.070000 5.582943 2.800000
v 1.010000 5.582943 2.800000
v -1.070000 5.582943 2.600000
v 1.010000 5.582943 2.600000
vn -0.0000 1.0000 -0.0000
vn -1.0000 -0.0000 -0.0000
vn -0.0000 -1.0000 -0.0000
vn 1.0000 -0.0000 -0.0000
vn -0.0000 -0.0000 1.0000
vn -0.0000 -0.0000 -1.0000
vn 0.3827 -0.0000 -0.9239
vn 0.9239 -0.0000 -0.3827
vn 0.9239 -0.0000 0.3827
vn 0.3827 -0.0000 0.9239
vn -0.3827 -0.0000 0.9239
vn -0.9239 -0.0000 0.3827
vn -0.9239 -0.0000 -0.3827
vn -0.3827 -0.0000 -0.9239
vt 0.383475 0.727509
vt 0.305691 0.727509
vt 0.276694 0.747298
vt 0.383475 0.747298
vt 0.305691 0.747298
vt 0.412472 0.747298
vt 0.363686 0.727509
vt 0.354478 0.727509
vt 0.276694 0.727509
vt 0.363686 0.747298
vt 0.354478 0.747298
vt 0.412472 0.727509
vt 0.441469 0.727509
vt 0.325480 0.727509
vt 0.296483 0.747298
vt 0.421680 0.727509
vt 0.325480 0.747298
vt 0.392683 0.747298
vt 0.334689 0.727509
vt 0.441469 0.747298
vt 0.296483 0.727509
vt 0.334689 0.747298
vt 0.421680 0.747298
vt 0.392683 0.727509
vt 0.886610 0.718301
vt 0.487590 0.727509
vt 0.863550 0.366056
vt 0.872758 0.718301
vt 0.473738 0.727509
vt 0.863550 0.356848
vt 0.886610 0.366056
vt 0.450677 0.727509
vt 0.863550 0.718301
vt 0.872758 0.366056
vt 0.464529 0.727509
vt 0.863550 0.004604
vt 0.886610 0.004604
vt 0.487590 0.748194
vt 0.842865 0.366056
vt 0.872758 0.004604
vt 0.473738 0.748194
vt 0.842865 0.356848
vt 0.450677 0.748194
vt 0.886610 0.356848
vt 0.842865 0.718301
vt 0.464529 0.748194
vt 0.872758 0.356848
vt 0.842865 0.004604
vt 0.276694 0.756506
vt 0.793435 0.561281
vt 0.755053 0.561281
vt 0.285929 0.756506
vt 0.784200 0.561281
vt 0.823911 0.616690
vt 0.276694 0.776444
vt 0.924815 0.004604
vt 0.774992 0.561281
vt 0.285929 0.776444
vt 0.934050 0.004604
vt 0.803973 0.616690
vt 0.506033 0.727509
vt 0.793435 0.810623
vt 0.755053 0.810623
vt 0.496798 0.727509
vt 0.784200 0.810623
vt 0.823911 0.866032
vt 0.924815 0.253945
vt 0.506033 0.747447
vt 0.774992 0.810623
vt 0.934050 0.253945
vt 0.496798 0.747447
vt 0.803973 0.866032
vt 0.924815 0.263154
vt 0.953512 0.004604
vt 0.512495 0.366056
vt 0.925338 0.263154
vt 0.952989 0.004604
vt 0.253945 0.718301
vt 0.924815 0.615398
vt 0.943259 0.004604
vt 0.512495 0.718301
vt 0.925338 0.615398
vt 0.943781 0.004604
vt 0.253945 0.366056
vt 0.954008 0.615398
vt 0.953512 0.253945
vt 0.263154 0.366056
vt 0.954531 0.615398
vt 0.952989 0.253945
vt 0.004604 0.718301
vt 0.943258 0.253945
vt 0.954008 0.263154
vt 0.263154 0.718301
vt 0.943781 0.253945
vt 0.954531 0.263154
vt 0.004604 0.366056
vt 0.934546 0.263154
vt 0.833119 0.866032
vt 0.512495 0.004604
vt 0.935069 0.263154
vt 0.833642 0.866032
vt 0.004604 0.004604
vt 0.934546 0.615398
vt 0.127313 0.976850
vt 0.512495 0.356848
vt 0.935069 0.615398
vt 0.126791 0.976850
vt 0.004604 0.356848
vt 0.944277 0.615398
vt 0.833119 0.616690
vt 0.263154 0.004604
vt 0.944800 0.615398
vt 0.833642 0.616690
vt 0.253946 0.004604
vt 0.127314 0.727509
vt 0.944277 0.263154
vt 0.263154 0.356848
vt 0.126791 0.727509
vt 0.944800 0.263154
vt 0.253945 0.356848
vt 0.197222 0.727509
vt 0.794765 0.004604
vt 0.983649 0.263154
vt 0.197222 0.859435
vt 0.662838 0.004604
vt 0.994574 0.893736
vt 0.196400 0.727509
vt 0.521703 0.282943
vt 0.984470 0.263154
vt 0.196400 0.859435
vt 0.653630 0.282943
vt 0.995396 0.893736
vt 0.207251 0.859435
vt 0.794765 0.273735
vt 0.983649 0.532284
vt 0.207251 0.727509
vt 0.662838 0.273734
vt 0.994574 0.624606
vt 0.521703 0.552073
vt 0.206430 0.859435
vt 0.984470 0.532284
vt 0.653630 0.552073
vt 0.206430 0.727509
vt 0.995396 0.624606
vt 0.004604 0.859435
vt 0.066556 0.727509
vt 0.237369 0.727509
vt 0.004604 0.727509
vt 0.066556 0.859435
vt 0.267486 0.749277
vt 0.026372 0.859435
vt 0.096673 0.859435
vt 0.237369 0.749277
vt 0.026372 0.727509
vt 0.096673 0.727509
vt 0.267486 0.727509
vt 0.035580 0.727509
vt 0.087465 0.727509
vt 0.216460 0.727509
vt 0.035580 0.859435
vt 0.087465 0.859435
vt 0.246577 0.749277
vt 0.117583 0.859435
vt 0.057348 0.727509
vt 0.216460 0.749277
vt 0.117583 0.727509
vt 0.057348 0.859435
vt 0.246577 0.727509
vt 0.186371 0.859435
vt 0.794765 0.282943
vt 0.994500 0.532284
vt 0.186371 0.727509
vt 0.662838 0.282943
vt 0.985366 0.624606
vt 0.187192 0.859435
vt 0.521703 0.004604
vt 0.993679 0.532284
vt 0.187192 0.727509
vt 0.653630 0.004604
vt 0.984545 0.624606
vt 0.176341 0.727509
vt 0.794765 0.552073
vt 0.994500 0.263154
vt 0.176341 0.859435
vt 0.662838 0.552073
vt 0.985366 0.893736
vt 0.521703 0.273734
vt 0.177163 0.727509
vt 0.993679 0.263154
vt 0.653630 0.273735
vt 0.177163 0.859435
vt 0.984545 0.893736
vt 0.973694 0.559989
vt 0.706953 0.858116
vt 0.305839 0.786189
vt 0.973694 0.263154
vt 0.706953 0.561281
vt 0.355613 0.756506
vt 0.974441 0.559989
vt 0.745845 0.561281
vt 0.305092 0.786189
vt 0.974441 0.263154
vt 0.745845 0.858116
vt 0.354867 0.756506
vt 0.944725 0.624606
vt 0.677270 0.858116
vt 0.305839 0.756506
vt 0.944725 0.921441
vt 0.677270 0.561281
vt 0.355613 0.786189
vt 0.716161 0.561281
vt 0.945472 0.624606
vt 0.305092 0.756506
vt 0.716161 0.858116
vt 0.945472 0.921441
vt 0.354867 0.786189
vt 0.963739 0.559989
vt 0.590278 0.858116
vt 0.335704 0.786189
vt 0.963739 0.263154
vt 0.590278 0.561281
vt 0.325749 0.756506
vt 0.964486 0.559989
vt 0.551387 0.561281
vt 0.334957 0.786189
vt 0.964486 0.263154
vt 0.551387 0.858116
vt 0.325002 0.756506
vt 0.964635 0.624606
vt 0.560595 0.858116
vt 0.335704 0.756506
vt 0.964635 0.921441
vt 0.560595 0.561281
vt 0.325749 0.786189
vt 0.521703 0.561281
vt 0.965382 0.624606
vt 0.334957 0.756506
vt 0.521703 0.858116
vt 0.965382 0.921441
vt 0.325002 0.786189
vt 0.954680 0.921441
vt 0.629170 0.858116
vt 0.365568 0.786189
vt 0.954680 0.624606
vt 0.629170 0.561281
vt 0.315794 0.756506
vt 0.955427 0.921441
vt 0.668062 0.561281
vt 0.364822 0.786189
vt 0.955427 0.624606
vt 0.668062 0.858116
vt 0.315047 0.756506
vt 0.934770 0.624606
vt 0.599487 0.858116
vt 0.365568 0.756506
vt 0.934770 0.921441
vt 0.599487 0.561281
vt 0.315794 0.786189
vt 0.638378 0.561281
vt 0.935517 0.624606
vt 0.364822 0.756506
vt 0.638378 0.858116
vt 0.935517 0.921441
vt 0.315047 0.786189
vt 0.397978 0.776004
vt 0.232664 0.758485
vt 0.246324 0.787871
vt 0.397978 0.786295
vt 0.276694 0.795540
vt 0.232664 0.768775
vt 0.390981 0.776004
vt 0.389781 0.795503
vt 0.246543 0.780877
vt 0.390981 0.786295
vt 0.389781 0.805793
vt 0.276694 0.802537
vt 0.386883 0.795503
vt 0.331456 0.805688
vt 0.246852 0.777983
vt 0.386883 0.805793
vt 0.331456 0.795398
vt 0.276913 0.805439
vt 0.334354 0.805688
vt 0.374776 0.786295
vt 0.247071 0.780885
vt 0.334354 0.795398
vt 0.374776 0.776004
vt 0.277222 0.802545
vt 0.381773 0.786295
vt 0.407186 0.786295
vt 0.247071 0.787882
vt 0.381773 0.776004
vt 0.407186 0.776004
vt 0.277441 0.795552
vt 0.414182 0.786295
vt 0.343562 0.805688
vt 0.246852 0.794876
vt 0.414182 0.776004
vt 0.343562 0.795398
vt 0.277441 0.788554
vt 0.346460 0.805688
vt 0.298035 0.795398
vt 0.246543 0.797770
vt 0.346460 0.795398
vt 0.277222 0.785652
vt 0.298035 0.805688
vt 0.295137 0.795398
vt 0.239661 0.758485
vt 0.246324 0.794868
vt 0.276913 0.788546
vt 0.295137 0.805688
vt 0.239661 0.768775
vt 0.223456 0.758485
vt 0.496798 0.756655
vt 0.236369 0.787882
vt 0.223456 0.768775
vt 0.439595 0.795390
vt 0.496798 0.766946
vt 0.216460 0.758485
vt 0.426288 0.795503
vt 0.236369 0.780885
vt 0.216460 0.768775
vt 0.426288 0.805793
vt 0.439595 0.802388
vt 0.423390 0.795503
vt 0.411095 0.805793
vt 0.236588 0.777983
vt 0.423390 0.805793
vt 0.411095 0.795503
vt 0.439814 0.805290
vt 0.413993 0.805793
vt 0.407186 0.766796
vt 0.236897 0.780877
vt 0.413993 0.795503
vt 0.407186 0.756506
vt 0.440123 0.802396
vt 0.414182 0.766796
vt 0.390981 0.766796
vt 0.237116 0.787871
vt 0.414182 0.756506
vt 0.390981 0.756506
vt 0.440342 0.795402
vt 0.397978 0.766796
vt 0.398989 0.805793
vt 0.237116 0.794868
vt 0.397978 0.756506
vt 0.398989 0.795503
vt 0.440342 0.788405
vt 0.401887 0.805793
vt 0.469780 0.805898
vt 0.236897 0.797770
vt 0.401887 0.795503
vt 0.440123 0.785503
vt 0.469780 0.816188
vt 0.466882 0.805898
vt 0.503794 0.756655
vt 0.236588 0.794876
vt 0.439814 0.788397
vt 0.466882 0.816188
vt 0.503794 0.766946
vt 0.473878 0.757402
vt 0.374776 0.756506
vt 0.265820 0.797381
vt 0.473878 0.767692
vt 0.217206 0.787882
vt 0.374776 0.766796
vt 0.466882 0.757402
vt 0.219358 0.806978
vt 0.265601 0.804375
vt 0.466882 0.767692
vt 0.219358 0.817268
vt 0.217206 0.780885
vt 0.216460 0.806978
vt 0.496798 0.805942
vt 0.265292 0.807269
vt 0.216460 0.817268
vt 0.496798 0.795652
vt 0.216988 0.777983
vt 0.499696 0.805942
vt 0.450677 0.767692
vt 0.265074 0.804367
vt 0.499696 0.795652
vt 0.450677 0.757402
vt 0.216678 0.780877
vt 0.457674 0.767692
vt 0.423390 0.766796
vt 0.265074 0.797369
vt 0.457674 0.757402
vt 0.423390 0.756506
vt 0.216460 0.787871
vt 0.430387 0.766796
vt 0.508904 0.805942
vt 0.265292 0.790375
vt 0.430387 0.756506
vt 0.508904 0.795652
vt 0.216460 0.794868
vt 0.511802 0.805942
vt 0.453575 0.796399
vt 0.265601 0.787482
vt 0.511802 0.795652
vt 0.216678 0.797770
vt 0.453575 0.806689
vt 0.450677 0.796399
vt 0.381773 0.756506
vt 0.265820 0.790384
vt 0.216988 0.794876
vt 0.450677 0.806689
vt 0.381773 0.766796
vt 0.430387 0.776004
vt 0.248869 0.758485
vt 0.483833 0.796298
vt 0.430387 0.786295
vt 0.227161 0.787882
vt 0.248869 0.768775
vt 0.423390 0.776004
vt 0.358566 0.795398
vt 0.483614 0.803292
vt 0.423390 0.786295
vt 0.358566 0.805688
vt 0.227161 0.780885
vt 0.355668 0.795398
vt 0.307243 0.805688
vt 0.483305 0.806186
vt 0.355668 0.805688
vt 0.307243 0.795398
vt 0.226942 0.777983
vt 0.310141 0.805688
vt 0.496798 0.786444
vt 0.483086 0.803284
vt 0.310141 0.795398
vt 0.496798 0.776154
vt 0.226633 0.780877
vt 0.503794 0.786444
vt 0.450677 0.787191
vt 0.483086 0.796287
vt 0.503794 0.776154
vt 0.450677 0.776900
vt 0.226414 0.787871
vt 0.457674 0.787191
vt 0.374776 0.805793
vt 0.483305 0.789293
vt 0.457674 0.776900
vt 0.374776 0.795503
vt 0.226414 0.794868
vt 0.377674 0.805793
vt 0.322248 0.795398
vt 0.483614 0.786399
vt 0.377674 0.795503
vt 0.226633 0.797770
vt 0.322248 0.805688
vt 0.319350 0.795398
vt 0.255865 0.758485
vt 0.483833 0.789301
vt 0.226942 0.794876
vt 0.319350 0.805688
vt 0.255865 0.768775
vt 0.974590 0.921441
vt 0.833656 0.607482
vt 0.295884 0.786189
vt 0.974590 0.624606
vt 0.833656 0.310647
vt 0.345658 0.756506
vt 0.975337 0.921441
vt 0.833656 0.004604
vt 0.295137 0.786189
vt 0.975337 0.624606
vt 0.833656 0.301439
vt 0.344912 0.756506
vt 0.924815 0.624606
vt 0.803973 0.607482
vt 0.295884 0.756506
vt 0.924815 0.921441
vt 0.803973 0.310647
vt 0.345658 0.786189
vt 0.803973 0.004604
vt 0.925562 0.624606
vt 0.295137 0.756506
vt 0.803973 0.301439
vt 0.925562 0.921441
vt 0.344912 0.786189
vt 0.167133 0.727509
vt 0.895818 0.004604
vt 0.483833 0.777191
vt 0.167133 0.933314
vt 0.895818 0.210410
vt 0.265820 0.758485
vt 0.166386 0.727509
vt 0.915607 0.649645
vt 0.483086 0.777191
vt 0.166386 0.933314
vt 0.915607 0.855451
vt 0.265074 0.758485
vt 0.147223 0.933314
vt 0.915607 0.004604
vt 0.483833 0.757402
vt 0.147223 0.727509
vt 0.915607 0.210410
vt 0.265820 0.778274
vt 0.895818 0.649645
vt 0.146477 0.933314
vt 0.483086 0.757402
vt 0.895818 0.855451
vt 0.146477 0.727509
vt 0.265074 0.778274
vt 0.136522 0.933314
vt 0.895818 0.219618
vt 0.440342 0.776295
vt 0.136522 0.727509
vt 0.895818 0.425423
vt 0.467629 0.776900
vt 0.137268 0.933314
vt 0.915607 0.434632
vt 0.439595 0.776295
vt 0.137268 0.727509
vt 0.915607 0.640437
vt 0.466882 0.776900
vt 0.157178 0.933314
vt 0.915607 0.219618
vt 0.440342 0.756506
vt 0.157178 0.727509
vt 0.915607 0.425423
vt 0.467629 0.796689
vt 0.895818 0.434632
vt 0.156431 0.933314
vt 0.439595 0.756506
vt 0.895818 0.640437
vt 0.156431 0.727509
vt 0.466882 0.796689
s 0
usemtl Material.001
f 1/1/1 2/4/1 4/10/1 3/7/1
f 3/8/2 4/11/2 8/22/2 7/19/2
f 7/20/3 8/23/3 6/16/3 5/13/3
f 5/14/4 6/17/4 2/5/4 1/2/4
f 3/9/5 7/21/5 5/15/5 1/3/5
f 8/24/6 4/12/6 2/6/6 6/18/6
f 9/25/6 10/28/6 12/34/6 11/31/6
f 11/32/3 12/35/3 16/46/3 15/43/3
f 15/44/5 16/47/5 14/40/5 13/37/5
f 13/38/1 14/41/1 10/29/1 9/26/1
f 11/33/2 15/45/2 13/39/2 9/27/2
f 16/48/4 12/36/4 10/30/4 14/42/4
f 17/49/4 18/52/4 20/58/4 19/55/4
f 19/56/5 20/59/5 24/70/5 23/67/5
f 23/68/2 24/71/2 22/64/2 21/61/2
f 21/62/6 22/65/6 18/53/6 17/50/6
f 19/57/3 23/69/3 21/63/3 17/51/3
f 24/72/1 20/60/1 18/54/1 22/66/1
f 25/73/4 26/76/4 28/82/4 27/79/4
f 27/80/3 28/83/3 32/94/3 31/91/3
f 31/92/2 32/95/2 30/88/2 29/85/2
f 29/86/1 30/89/1 26/77/1 25/74/1
f 27/81/6 31/93/6 29/87/6 25/75/6
f 32/96/5 28/84/5 26/78/5 30/90/5
f 33/97/4 34/100/4 36/106/4 35/103/4
f 35/104/3 36/107/3 40/118/3 39/115/3
f 39/116/2 40/119/2 38/112/2 37/109/2
f 37/110/1 38/113/1 34/101/1 33/98/1
f 35/105/6 39/117/6 37/111/6 33/99/6
f 40/120/5 36/108/5 34/102/5 38/114/5
f 41/121/2 42/124/2 44/130/2 43/127/2
f 43/128/6 44/131/6 48/142/6 47/139/6
f 47/140/4 48/143/4 46/136/4 45/133/4
f 45/134/5 46/137/5 42/125/5 41/122/5
f 43/129/3 47/141/3 45/135/3 41/123/3
f 48/144/1 44/132/1 42/126/1 46/138/1
f 49/145/5 50/148/5 52/154/5 51/151/5
f 51/152/2 52/155/2 56/166/2 55/163/2
f 55/164/6 56/167/6 54/160/6 53/157/6
f 53/158/4 54/161/4 50/149/4 49/146/4
f 51/153/3 55/165/3 53/159/3 49/147/3
f 56/168/1 52/156/1 50/150/1 54/162/1
f 57/169/2 58/172/2 60/178/2 59/175/2
f 59/176/6 60/179/6 64/190/6 63/187/6
f 63/188/4 64/191/4 62/184/4 61/181/4
f 61/182/5 62/185/5 58/173/5 57/170/5
f 59/177/3 63/189/3 61/183/3 57/171/3
f 64/192/1 60/180/1 58/174/1 62/186/1
f 65/193/2 66/196/2 68/202/2 67/199/2
f 67/200/6 68/203/6 72/214/6 71/211/6
f 71/212/4 72/215/4 70/208/4 69/205/4
f 69/206/5 70/209/5 66/197/5 65/194/5
f 67/201/3 71/213/3 69/207/3 65/195/3
f 72/216/1 68/204/1 66/198/1 70/210/1
f 73/217/2 74/220/2 76/226/2 75/223/2
f 75/224/6 76/227/6 80/238/6 79/235/6
f 79/236/4 80/239/4 78/232/4 77/229/4
f 77/230/5 78/233/5 74/221/5 73/218/5
f 75/225/3 79/237/3 77/231/3 73/219/3
f 80/240/1 76/228/1 74/222/1 78/234/1
f 81/241/2 82/244/2 84/250/2 83/247/2
f 83/248/6 84/251/6 88/262/6 87/259/6
f 87/260/4 88/263/4 86/256/4 85/253/4
f 85/254/5 86/257/5 82/245/5 81/242/5
f 83/249/3 87/261/3 85/255/3 81/243/3
f 88/264/1 84/252/1 82/246/1 86/258/1
f 89/265/7 90/268/7 92/274/7 91/271/7
f 91/272/8 92/275/8 94/280/8 93/277/8
f 93/278/9 94/281/9 96/286/9 95/283/9
f 95/284/10 96/287/10 98/292/10 97/289/10
f 97/290/11 98/293/11 100/298/11 99/295/11
f 99/296/12 100/299/12 102/304/12 101/301/12
f 92/276/1 90/269/1 104/310/1 102/305/1 100/300/1 98/294/1 96/288/1 94/282/1
f 101/302/13 102/306/13 104/311/13 103/307/13
f 103/308/14 104/312/14 90/270/14 89/266/14
f 89/267/3 91/273/3 93/279/3 95/285/3 97/291/3 99/297/3 101/303/3 103/309/3
f 105/313/7 106/316/7 108/322/7 107/319/7
f 107/320/8 108/323/8 110/328/8 109/325/8
f 109/326/9 110/329/9 112/334/9 111/331/9
f 111/332/10 112/335/10 114/340/10 113/337/10
f 113/338/11 114/341/11 116/346/11 115/343/11
f 115/344/12 116/347/12 118/352/12 117/349/12
f 108/324/1 106/317/1 120/358/1 118/353/1 116/348/1 114/342/1 112/336/1 110/330/1
f 117/350/13 118/354/13 120/359/13 119/355/13
f 119/356/14 120/360/14 106/318/14 105/314/14
f 105/315/3 107/321/3 109/327/3 111/333/3 113/339/3 115/345/3 117/351/3 119/357/3
f 121/361/7 122/364/7 124/370/7 123/367/7
f 123/368/8 124/371/8 126/376/8 125/373/8
f 125/374/9 126/377/9 128/382/9 127/379/9
f 127/380/10 128/383/10 130/388/10 129/385/10
f 129/386/11 130/389/11 132/394/11 131/391/11
f 131/392/12 132/395/12 134/400/12 133/397/12
f 124/372/1 122/365/1 136/406/1 134/401/1 132/396/1 130/390/1 128/384/1 126/378/1
f 133/398/13 134/402/13 136/407/13 135/403/13
f 135/404/14 136/408/14 122/366/14 121/362/14
f 121/363/3 123/369/3 125/375/3 127/381/3 129/387/3 131/393/3 133/399/3 135/405/3
f 137/409/7 138/412/7 140/418/7 139/415/7
f 139/416/8 140/419/8 142/424/8 141/421/8
f 141/422/9 142/425/9 144/430/9 143/427/9
f 143/428/10 144/431/10 146/436/10 145/433/10
f 145/434/11 146/437/11 148/442/11 147/439/11
f 147/440/12 148/443/12 150/448/12 149/445/12
f 140/420/1 138/413/1 152/454/1 150/449/1 148/444/1 146/438/1 144/432/1 142/426/1
f 149/446/13 150/450/13 152/455/13 151/451/13
f 151/452/14 152/456/14 138/414/14 137/410/14
f 137/411/3 139/417/3 141/423/3 143/429/3 145/435/3 147/441/3 149/447/3 151/453/3
f 153/457/2 154/460/2 156/466/2 155/463/2
f 155/464/6 156/467/6 160/478/6 159/475/6
f 159/476/4 160/479/4 158/472/4 157/469/4
f 157/470/5 158/473/5 154/461/5 153/458/5
f 155/465/3 159/477/3 157/471/3 153/459/3
f 160/480/1 156/468/1 154/462/1 158/474/1
f 161/481/1 162/484/1 164/490/1 163/487/1
f 163/488/6 164/491/6 168/502/6 167/499/6
f 167/500/3 168/503/3 166/496/3 165/493/3
f 165/494/5 166/497/5 162/485/5 161/482/5
f 163/489/2 167/501/2 165/495/2 161/483/2
f 168/504/4 164/492/4 162/486/4 166/498/4
f 169/505/1 170/508/1 172/514/1 171/511/1
f 171/512/6 172/515/6 176/526/6 175/523/6
f 175/524/3 176/527/3 174/520/3 173/517/3
f 173/518/5 174/521/5 170/509/5 169/506/5
f 171/513/2 175/525/2 173/519/2 169/507/2
f 176/528/4 172/516/4 170/510/4 174/522/4
