# Blender 3.5.1
# www.blender.org
mtllib Elevator Sign.mtl
o Cube.002
v 0.020000 8.070000 -2.010000
v 0.020000 8.070000 -0.313225
v 0.020000 8.549999 -2.010000
v 0.020000 8.549999 -0.313225
v 0.222620 8.110308 -1.971371
v 0.222620 8.110308 -0.351854
v 0.222620 8.509691 -1.971371
v 0.222620 8.509691 -0.351854
v 0.240000 8.549999 -0.313225
v 0.240000 8.549999 -2.010000
v 0.240000 8.070000 -2.010000
v 0.240000 8.070000 -0.313225
vn -1.0000 -0.0000 -0.0000
vn -0.0000 1.0000 -0.0000
vn 1.0000 -0.0000 -0.0000
vn -0.0000 -1.0000 -0.0000
vn -0.0000 -0.0000 -1.0000
vn -0.0000 -0.0000 1.0000
vn 0.9183 -0.3959 -0.0000
vn 0.9119 -0.0000 0.4103
vn 0.9119 -0.0000 -0.4103
vn 0.9183 0.3959 -0.0000
vt 0.375000 0.000000
vt 0.375000 1.000000
vt 0.125000 0.750000
vt 0.625000 0.000000
vt 0.625000 1.000000
vt 0.875000 0.750000
vt 0.375000 0.250000
vt 0.125000 0.500000
vt 0.625000 0.250000
vt 0.875000 0.500000
vt 0.380691 0.729006
vt 0.619309 0.729006
vt 0.380691 0.520994
vt 0.619309 0.520994
vt 0.625000 0.500000
vt 0.375000 0.500000
vt 0.375000 0.750000
vt 0.625000 0.750000
s 0
f 1/1/1 2/4/1 4/9/1 3/7/1
f 3/7/2 4/9/2 9/15/2 10/16/2
f 7/13/3 8/14/3 6/12/3 5/11/3
f 11/17/4 12/18/4 2/5/4 1/2/4
f 3/8/5 10/16/5 11/17/5 1/3/5
f 9/15/6 4/10/6 2/6/6 12/18/6
f 8/14/7 7/13/7 10/16/7 9/15/7
f 7/13/8 5/11/8 11/17/8 10/16/8
f 6/12/9 8/14/9 9/15/9 12/18/9
f 5/11/10 6/12/10 12/18/10 11/17/10
