# Blender 3.5.1
# www.blender.org
mtllib Fire Extinguisher Nozzle.mtl
o Cylinder
v 0.000000 -0.570091 -0.015140
v 0.010706 -0.570091 -0.010706
v 0.015140 -0.570091 0.000000
v 0.010706 -0.570091 0.010706
v 0.000000 -0.570091 0.015140
v -0.010706 -0.570091 0.010706
v -0.015140 -0.570091 0.000000
v -0.010706 -0.570091 -0.010706
v 0.000000 -1.000000 -0.500000
v 0.353553 -1.000000 -0.353553
v 0.500000 -1.000000 0.000000
v 0.353553 -1.000000 0.353553
v 0.000000 -1.000000 0.500000
v -0.353553 -1.000000 0.353553
v -0.500000 -1.000000 0.000000
v -0.353553 -1.000000 -0.353553
v 0.000000 0.698605 -0.357482
v 0.252778 0.698605 -0.252778
v 0.357482 0.698605 0.000000
v 0.252778 0.698605 0.252778
v -0.000000 0.698605 0.357482
v -0.252778 0.698605 0.252778
v -0.357482 0.698605 -0.000000
v -0.252778 0.698605 -0.252778
v 0.000000 1.000000 -0.156218
v 0.000000 0.865130 -0.270359
v 0.110463 1.000000 -0.110463
v 0.191173 0.865130 -0.191173
v 0.156218 1.000000 0.000000
v 0.270359 0.865130 0.000000
v 0.110463 1.000000 0.110463
v 0.191173 0.865130 0.191173
v -0.000000 1.000000 0.156218
v -0.000000 0.865130 0.270359
v -0.110463 1.000000 0.110463
v -0.191173 0.865130 0.191173
v -0.156218 1.000000 -0.000000
v -0.270359 0.865130 -0.000000
v -0.110463 1.000000 -0.110463
v -0.191173 0.865130 -0.191173
vn -0.3815 0.0773 -0.9211
vn 0.9211 0.0773 0.3815
vn 0.3815 0.0773 0.9211
vn -0.3815 0.0773 0.9211
vn -0.9211 0.0773 0.3815
vn -0.9211 0.0773 -0.3815
vn 0.3815 0.0773 -0.9211
vn 0.9211 0.0773 -0.3815
vn -0.0000 -1.0000 -0.0000
vn -0.2650 -0.7215 0.6397
vn -0.6397 -0.7215 0.2650
vn -0.6397 -0.7215 -0.2650
vn -0.2650 -0.7215 -0.6397
vn 0.2650 -0.7215 -0.6397
vn 0.6397 -0.7215 -0.2650
vn 0.6397 -0.7215 0.2650
vn 0.2650 -0.7215 0.6397
vn -0.0000 1.0000 -0.0000
vn 0.8318 0.4352 0.3445
vn 0.3445 0.4352 0.8318
vn -0.3445 0.4352 0.8318
vn -0.8318 0.4352 0.3445
vn -0.8318 0.4352 -0.3445
vn 0.3445 0.4352 -0.8318
vn 0.8318 0.4352 -0.3445
vn 0.3015 0.6160 -0.7278
vn 0.7278 0.6160 -0.3015
vn 0.7278 0.6160 0.3015
vn 0.3015 0.6160 0.7278
vn -0.3015 0.6160 0.7278
vn -0.7278 0.6160 0.3015
vn -0.7278 0.6160 -0.3015
vn -0.3015 0.6160 -0.7278
vn -0.3445 0.4352 -0.8318
vt 0.551153 0.776891
vt 0.214653 0.765072
vt 0.796637 0.781016
vt 0.554055 0.773988
vt 0.218757 0.765072
vt 0.070183 0.932662
vt 0.558160 0.773988
vt 0.074287 0.932662
vt 0.214653 0.932662
vt 0.561062 0.776891
vt 0.218757 0.932662
vt 0.648062 0.781016
vt 0.561062 0.780996
vt 0.652167 0.781016
vt 0.503592 0.765072
vt 0.558160 0.783898
vt 0.507697 0.765072
vt 0.359122 0.765072
vt 0.554055 0.783898
vt 0.363227 0.765072
vt 0.070183 0.765072
vt 0.551153 0.780996
vt 0.074287 0.765072
vt 0.792532 0.781016
vt 0.004458 0.004458
vt 0.687868 0.591567
vt 0.148928 0.606399
vt 0.862361 0.622342
vt 0.784482 0.613426
vt 0.284482 0.004458
vt 0.284482 0.606399
vt 0.004458 0.773988
vt 0.793398 0.591567
vt 0.148928 0.004458
vt 0.140012 0.773988
vt 0.148928 0.773988
vt 0.890012 0.613426
vt 0.428952 0.004458
vt 0.284482 0.773988
vt 0.582338 0.622342
vt 0.293398 0.004458
vt 0.898928 0.591567
vt 0.717892 0.622342
vt 0.437868 0.606399
vt 0.995542 0.613426
vt 0.573422 0.004458
vt 0.573422 0.606399
vt 0.293398 0.606399
vt 0.437868 0.004458
vt 0.582338 0.591567
vt 0.428952 0.606399
vt 0.004458 0.606399
vt 0.140012 0.004458
vt 0.678952 0.613426
vt 0.140012 0.606399
vt 0.726808 0.622342
vt 0.023777 0.597483
vt 0.715406 0.004458
vt 0.868400 0.860753
vt 0.655634 0.886848
vt 0.784482 0.020087
vt 0.265163 0.597483
vt 0.868400 0.789932
vt 0.404560 0.773988
vt 0.820936 0.004458
vt 0.168247 0.597483
vt 0.936554 0.772902
vt 0.404560 0.870905
vt 0.890012 0.020087
vt 0.409633 0.597483
vt 0.936554 0.702080
vt 0.477856 0.773988
vt 0.312717 0.597483
vt 0.926466 0.004458
vt 0.477856 0.870905
vt 0.936554 0.693164
vt 0.995542 0.020087
vt 0.554103 0.597483
vt 0.936554 0.622342
vt 0.582338 0.789932
vt 0.457187 0.597483
vt 0.609876 0.004458
vt 0.582338 0.886848
vt 0.794207 0.860753
vt 0.120693 0.597483
vt 0.678952 0.020087
vt 0.794207 0.789932
vt 0.655634 0.789932
vt 0.293398 0.803936
vt 0.316008 0.885619
vt 0.933177 0.847756
vt 0.803123 0.848310
vt 0.293398 0.943925
vt 0.877316 0.863228
vt 0.720014 0.875038
vt 0.293398 0.846287
vt 0.346953 0.885151
vt 0.784791 0.885142
vt 0.803123 0.794748
vt 0.468940 0.785798
vt 0.346953 0.943115
vt 0.728930 0.869669
vt 0.323345 0.876235
vt 0.784791 0.927493
vt 0.427170 0.880289
vt 0.871278 0.760458
vt 0.468940 0.859095
vt 0.728930 0.942966
vt 0.404560 0.938595
vt 0.365697 0.876235
vt 0.458116 0.879821
vt 0.933177 0.887617
vt 0.871278 0.706897
vt 0.542237 0.785798
vt 0.458116 0.937785
vt 0.877316 0.872144
vt 0.395644 0.846287
vt 0.933177 0.929968
vt 0.604948 0.896232
vt 0.542237 0.859095
vt 0.871278 0.680720
vt 0.877316 0.945441
vt 0.582338 0.954538
vt 0.395644 0.803936
vt 0.635893 0.895764
vt 0.858984 0.885142
vt 0.871278 0.627159
vt 0.646718 0.801741
vt 0.635893 0.953728
vt 0.803123 0.869669
vt 0.365697 0.773988
vt 0.858984 0.927493
vt 0.500467 0.880289
vt 0.646718 0.875038
vt 0.728930 0.848310
vt 0.803123 0.942966
vt 0.477856 0.938595
vt 0.323345 0.773988
vt 0.531412 0.879821
vt 0.933177 0.805404
vt 0.728930 0.794748
vt 0.531412 0.937785
vt 0.877316 0.789932
vt 0.720014 0.801741
s 0
usemtl Material
f 16/53/1 24/85/1 17/57/1 9/25/1
f 11/33/2 19/65/2 20/69/2 12/37/2
f 12/38/3 20/70/3 21/73/3 13/41/3
f 13/42/4 21/74/4 22/77/4 14/45/4
f 14/46/5 22/78/5 23/81/5 15/49/5
f 15/50/6 23/82/6 24/86/6 16/54/6
f 9/26/7 17/58/7 18/61/7 10/29/7
f 10/30/8 18/62/8 19/66/8 11/34/8
f 1/1/9 2/4/9 3/7/9 4/10/9 5/13/9 6/16/9 7/19/9 8/22/9
f 2/5/10 1/2/10 9/27/10 10/31/10
f 3/8/11 2/6/11 10/32/11 11/35/11
f 4/11/12 3/9/12 11/36/12 12/39/12
f 5/14/13 4/12/13 12/40/13 13/43/13
f 6/17/14 5/15/14 13/44/14 14/47/14
f 7/20/15 6/18/15 14/48/15 15/51/15
f 8/23/16 7/21/16 15/52/16 16/55/16
f 1/3/17 8/24/17 16/56/17 9/28/17
f 27/96/18 25/89/18 39/138/18 37/131/18 35/124/18 33/117/18 31/110/18 29/103/18
f 20/71/19 19/67/19 30/106/19 32/113/19
f 21/75/20 20/72/20 32/114/20 34/120/20
f 22/79/21 21/76/21 34/121/21 36/127/21
f 23/83/22 22/80/22 36/128/22 38/134/22
f 24/87/23 23/84/23 38/135/23 40/141/23
f 18/63/24 17/59/24 26/92/24 28/99/24
f 19/68/25 18/64/25 28/100/25 30/107/25
f 25/90/26 27/97/26 28/101/26 26/93/26
f 27/98/27 29/104/27 30/108/27 28/102/27
f 29/105/28 31/111/28 32/115/28 30/109/28
f 31/112/29 33/118/29 34/122/29 32/116/29
f 33/119/30 35/125/30 36/129/30 34/123/30
f 35/126/31 37/132/31 38/136/31 36/130/31
f 37/133/32 39/139/32 40/142/32 38/137/32
f 39/140/33 25/91/33 26/94/33 40/143/33
f 17/60/34 24/88/34 40/144/34 26/95/34
