# Blender 3.5.1
# www.blender.org
mtllib Keyboard.mtl
o Cube
v 1.000000 -0.046141 -0.390219
v 1.000000 -0.151913 0.362385
v -1.000000 -0.046141 -0.390219
v -1.000000 -0.151913 0.362385
v 0.941638 0.148826 -0.340423
v 1.000000 0.146133 -0.363197
v 0.941638 0.049228 0.368257
v 1.000000 0.040362 0.389407
v -0.941638 0.148826 -0.340423
v -1.000000 0.146133 -0.363197
v -0.941638 0.049228 0.368257
v -1.000000 0.040362 0.389407
v -0.980000 -0.160000 -0.150000
v -0.980000 0.040000 -0.150000
v -0.980000 -0.160000 -0.350000
v -0.980000 0.040000 -0.350000
v -0.780000 -0.160000 -0.150000
v -0.780000 0.040000 -0.150000
v -0.780000 -0.160000 -0.350000
v -0.780000 0.040000 -0.350000
v 0.780000 -0.160000 -0.150000
v 0.780000 0.040000 -0.150000
v 0.780000 -0.160000 -0.350000
v 0.780000 0.040000 -0.350000
v 0.980000 -0.160000 -0.150000
v 0.980000 0.040000 -0.150000
v 0.980000 -0.160000 -0.350000
v 0.980000 0.040000 -0.350000
v -0.850000 -0.100779 0.293163
v -0.850000 0.097275 0.320998
v -0.850000 -0.017275 -0.300998
v -0.850000 0.180779 -0.273163
v 0.150000 -0.100779 0.293163
v 0.150000 0.097275 0.320998
v 0.150000 -0.017275 -0.300998
v 0.150000 0.180779 -0.273163
v 0.460000 -0.100779 0.293163
v 0.460000 0.097275 0.320998
v 0.460000 -0.017275 -0.300998
v 0.460000 0.180779 -0.273163
v 0.860000 -0.100779 0.293163
v 0.860000 0.097275 0.320998
v 0.860000 -0.017275 -0.300998
v 0.860000 0.180779 -0.273163
vn -0.0000 -0.1392 0.9903
vn -1.0000 -0.0000 -0.0000
vn -0.0000 -0.9903 -0.1392
vn -0.0000 0.9903 0.1392
vn 1.0000 -0.0000 -0.0000
vn -0.0000 0.9222 0.3866
vn 0.0995 0.9854 0.1385
vn -0.0995 0.9854 0.1385
vn -0.0000 0.9931 -0.1174
vn -0.0000 0.1392 -0.9903
vn -0.0000 -0.0000 -1.0000
vn -0.0000 -0.0000 1.0000
vn -0.0000 -1.0000 -0.0000
vn -0.0000 1.0000 -0.0000
vt 0.234149 0.238599
vt 0.231764 0.481549
vt 0.467853 0.247300
vt 0.703942 0.481549
vt 0.004350 0.238599
vt 0.231764 0.247300
vt 0.470263 0.004350
vt 0.234149 0.004350
vt 0.467853 0.481549
vt 0.703942 0.247300
vt 0.470263 0.238599
vt 0.004350 0.004350
vt 0.478963 0.224928
vt 0.425151 0.740035
vt 0.378442 0.960612
vt 0.004350 0.481549
vt 0.418315 0.733199
vt 0.370410 0.967448
vt 0.240464 0.247300
vt 0.695350 0.224928
vt 0.394079 0.740035
vt 0.425151 0.960612
vt 0.476553 0.481549
vt 0.004350 0.247300
vt 0.387143 0.733199
vt 0.418315 0.967448
vt 0.478963 0.004350
vt 0.409615 0.960612
vt 0.378442 0.740035
vt 0.242849 0.004350
vt 0.402779 0.967448
vt 0.370410 0.733199
vt 0.240464 0.481549
vt 0.695350 0.004350
vt 0.394079 0.960612
vt 0.409615 0.740035
vt 0.476553 0.247300
vt 0.242849 0.238599
vt 0.387143 0.967448
vt 0.402779 0.733199
vt 0.900675 0.249395
vt 0.241909 0.733199
vt 0.433851 0.799408
vt 0.900675 0.481523
vt 0.241909 0.965270
vt 0.553652 0.799408
vt 0.838467 0.219073
vt 0.329585 0.733199
vt 0.433851 0.733199
vt 0.838467 0.451201
vt 0.329585 0.965270
vt 0.553652 0.733199
vt 0.971583 0.451201
vt 0.265334 0.733199
vt 0.457276 0.799408
vt 0.971583 0.219073
vt 0.265334 0.965270
vt 0.530227 0.799408
vt 0.306160 0.733199
vt 0.909375 0.481523
vt 0.457276 0.733199
vt 0.306160 0.965270
vt 0.909375 0.249395
vt 0.530227 0.733199
vt 0.966919 0.520572
vt 0.274034 0.733199
vt 0.465977 0.799408
vt 0.966919 0.752700
vt 0.274034 0.965270
vt 0.521527 0.799408
vt 0.904711 0.490249
vt 0.361710 0.733199
vt 0.465977 0.733199
vt 0.904711 0.722377
vt 0.361710 0.965270
vt 0.521527 0.733199
vt 0.066558 0.965327
vt 0.297459 0.733199
vt 0.489402 0.799408
vt 0.066558 0.733199
vt 0.297459 0.965270
vt 0.498102 0.799408
vt 0.338285 0.733199
vt 0.004350 0.995650
vt 0.489402 0.733199
vt 0.338285 0.965270
vt 0.004350 0.763522
vt 0.498102 0.733199
vt 0.189284 0.490249
vt 0.712642 0.247300
vt 0.778886 0.861790
vt 0.189284 0.724499
vt 0.712642 0.481523
vt 0.896011 0.671669
vt 0.004350 0.490249
vt 0.821175 0.004350
vt 0.778886 0.680370
vt 0.004350 0.724499
vt 0.821175 0.238574
vt 0.896011 0.490249
vt 0.391618 0.490249
vt 0.829767 0.247300
vt 0.896011 0.861790
vt 0.391618 0.724499
vt 0.829767 0.481523
vt 0.778886 0.671669
vt 0.704051 0.004350
vt 0.576552 0.490249
vt 0.896011 0.680370
vt 0.704051 0.238574
vt 0.576552 0.724499
vt 0.778886 0.490249
vt 0.382918 0.490249
vt 0.075258 0.733199
vt 0.186359 0.914619
vt 0.382918 0.724499
vt 0.075258 0.967422
vt 0.876725 0.185770
vt 0.197984 0.490249
vt 0.177658 0.733199
vt 0.186359 0.733199
vt 0.197984 0.724499
vt 0.177658 0.967422
vt 0.876725 0.004350
vt 0.585252 0.490249
vt 0.122108 0.733199
vt 0.233209 0.914619
vt 0.585252 0.724499
vt 0.122108 0.967422
vt 0.829876 0.185770
vt 0.130809 0.733199
vt 0.770186 0.490249
vt 0.233209 0.733199
vt 0.130809 0.967422
vt 0.770186 0.724499
vt 0.829876 0.004350
s 0
usemtl Material.001
f 2/4/1 8/23/1 12/37/1 4/10/1
f 4/11/2 12/38/2 10/30/2 3/7/2
f 3/8/3 1/1/3 2/5/3 4/12/3
f 5/13/4 9/27/4 11/34/4 7/20/4
f 1/2/5 6/16/5 8/24/5 2/6/5
f 7/21/6 11/35/6 12/39/6 8/25/6
f 5/14/7 7/22/7 8/26/7 6/17/7
f 11/36/8 9/28/8 10/31/8 12/40/8
f 9/29/9 5/15/9 6/18/9 10/32/9
f 3/9/10 10/33/10 6/19/10 1/3/10
f 13/41/2 14/44/2 16/50/2 15/47/2
f 15/48/11 16/51/11 20/62/11 19/59/11
f 19/60/5 20/63/5 18/56/5 17/53/5
f 17/54/12 18/57/12 14/45/12 13/42/12
f 15/49/13 19/61/13 17/55/13 13/43/13
f 20/64/14 16/52/14 14/46/14 18/58/14
f 21/65/2 22/68/2 24/74/2 23/71/2
f 23/72/11 24/75/11 28/86/11 27/83/11
f 27/84/5 28/87/5 26/80/5 25/77/5
f 25/78/12 26/81/12 22/69/12 21/66/12
f 23/73/13 27/85/13 25/79/13 21/67/13
f 28/88/14 24/76/14 22/70/14 26/82/14
f 29/89/2 30/92/2 32/98/2 31/95/2
f 31/96/10 32/99/10 36/110/10 35/107/10
f 35/108/5 36/111/5 34/104/5 33/101/5
f 33/102/1 34/105/1 30/93/1 29/90/1
f 31/97/3 35/109/3 33/103/3 29/91/3
f 36/112/4 32/100/4 30/94/4 34/106/4
f 37/113/2 38/116/2 40/122/2 39/119/2
f 39/120/10 40/123/10 44/134/10 43/131/10
f 43/132/5 44/135/5 42/128/5 41/125/5
f 41/126/1 42/129/1 38/117/1 37/114/1
f 39/121/3 43/133/3 41/127/3 37/115/3
f 44/136/4 40/124/4 38/118/4 42/130/4
