# Blender 3.5.1
# www.blender.org
mtllib Red Bull Can.mtl
o Cylinder
v 0.000000 1.108768 -0.200000
v -0.141421 1.108768 -0.141421
v -0.200000 1.108768 0.000000
v -0.141421 1.108768 0.141421
v 0.000000 1.108768 0.200000
v 0.141421 1.108768 0.141421
v 0.200000 1.108768 0.000000
v 0.141421 1.108768 -0.141421
v -0.000000 0.445726 -0.200000
v -0.141421 0.445726 -0.141421
v -0.200000 0.445726 0.000000
v -0.141421 0.445726 0.141421
v -0.000000 0.445726 0.200000
v 0.141421 0.445726 0.141421
v 0.200000 0.445726 0.000000
v 0.141421 0.445726 -0.141421
v -0.000000 0.421109 -0.162353
v -0.000000 0.430410 -0.188158
v -0.114801 0.421109 -0.114801
v -0.133048 0.430410 -0.133048
v -0.162353 0.421109 -0.000000
v -0.188159 0.430410 -0.000000
v -0.114801 0.421109 0.114801
v -0.133048 0.430410 0.133048
v -0.000000 0.421109 0.162353
v -0.000000 0.430410 0.188158
v 0.114801 0.421109 0.114801
v 0.133048 0.430410 0.133048
v 0.162353 0.421109 0.000000
v 0.188158 0.430410 0.000000
v 0.114801 0.421109 -0.114801
v 0.133048 0.430410 -0.133048
v -0.000000 0.416909 -0.195082
v -0.137944 0.416909 -0.137944
v -0.195082 0.416909 -0.000000
v -0.137944 0.416909 0.137944
v -0.000000 0.416909 0.195082
v 0.137944 0.416909 0.137944
v 0.195082 0.416909 0.000000
v 0.137944 0.416909 -0.137944
v -0.000000 0.404309 -0.178487
v -0.126210 0.404309 -0.126210
v -0.178488 0.404309 -0.000000
v -0.126210 0.404309 0.126210
v -0.000000 0.404309 0.178487
v 0.126210 0.404309 0.126210
v 0.178487 0.404309 0.000000
v 0.126210 0.404309 -0.126210
v -0.000000 0.705232 -0.200000
v 0.141421 0.705232 -0.141421
v 0.200000 0.705232 0.000000
v 0.141421 0.705232 0.141421
v -0.000000 0.705232 0.200000
v -0.141421 0.705232 0.141421
v -0.200000 0.705232 0.000000
v -0.141421 0.705232 -0.141421
v -0.000000 1.368274 -0.200000
v 0.141421 1.368274 -0.141421
v 0.200000 1.368274 0.000000
v 0.141421 1.368274 0.141421
v -0.000000 1.368274 0.200000
v -0.141421 1.368274 0.141421
v -0.200000 1.368274 0.000000
v -0.141421 1.368274 -0.141421
v -0.000000 1.392891 -0.162353
v -0.000000 1.383590 -0.188158
v 0.114801 1.392891 -0.114801
v 0.133048 1.383590 -0.133048
v 0.162353 1.392891 -0.000000
v 0.188158 1.383590 -0.000000
v 0.114801 1.392891 0.114801
v 0.133048 1.383590 0.133048
v -0.000000 1.392891 0.162353
v -0.000000 1.383590 0.188158
v -0.114801 1.392891 0.114801
v -0.133048 1.383590 0.133048
v -0.162353 1.392891 0.000000
v -0.188158 1.383590 0.000000
v -0.114801 1.392891 -0.114801
v -0.133048 1.383590 -0.133048
v -0.000000 1.397091 -0.195082
v 0.137944 1.397091 -0.137944
v 0.195082 1.397091 -0.000000
v 0.137944 1.397091 0.137944
v -0.000000 1.397091 0.195082
v -0.137944 1.397091 0.137944
v -0.195082 1.397091 0.000000
v -0.137944 1.397091 -0.137944
v -0.000000 1.409691 -0.178487
v 0.126210 1.409691 -0.126210
v 0.178487 1.409691 -0.000000
v 0.126210 1.409691 0.126210
v -0.000000 1.409691 0.178487
v -0.126210 1.409691 0.126210
v -0.178487 1.409691 0.000000
v -0.126210 1.409691 -0.126210
vn 0.3827 -0.0000 -0.9239
vn -0.9239 -0.0000 0.3827
vn -0.3827 -0.0000 0.9239
vn 0.3827 -0.0000 0.9239
vn 0.9239 -0.0000 0.3827
vn 0.9239 -0.0000 -0.3827
vn -0.3827 -0.0000 -0.9239
vn -0.9239 -0.0000 -0.3827
vn -0.0000 1.0000 -0.0000
vn -0.0000 -1.0000 -0.0000
vn -0.7518 -0.5812 0.3114
vn -0.3114 -0.5812 0.7518
vn 0.3114 -0.5812 0.7518
vn 0.7518 -0.5812 0.3114
vn 0.7518 -0.5812 -0.3114
vn -0.3114 -0.5812 -0.7518
vn -0.7518 -0.5812 -0.3114
vn -0.3458 0.4282 -0.8349
vn -0.8349 0.4282 -0.3458
vn -0.8349 0.4282 0.3458
vn -0.3458 0.4282 0.8349
vn 0.3458 0.4282 0.8349
vn 0.8349 0.4282 0.3458
vn 0.8349 0.4282 -0.3458
vn 0.3458 0.4282 -0.8349
vn 0.3114 -0.5812 -0.7518
vn -0.2430 -0.7726 -0.5866
vn -0.5866 -0.7726 -0.2430
vn -0.5866 -0.7726 0.2430
vn -0.2430 -0.7726 0.5866
vn 0.2430 -0.7726 0.5866
vn 0.5866 -0.7726 0.2430
vn 0.5866 -0.7726 -0.2430
vn 0.2430 -0.7726 -0.5866
vn 0.2862 -0.6637 0.6911
vn 0.6911 -0.6637 0.2862
vn 0.6911 -0.6637 -0.2862
vn 0.2862 -0.6637 -0.6911
vn -0.2862 -0.6637 -0.6911
vn -0.6911 -0.6637 -0.2862
vn -0.6911 -0.6637 0.2862
vn -0.2862 -0.6637 0.6911
vn 0.7518 0.5812 0.3114
vn 0.3114 0.5812 0.7518
vn -0.3114 0.5812 0.7518
vn -0.7518 0.5812 0.3114
vn -0.7518 0.5812 -0.3114
vn 0.3114 0.5812 -0.7518
vn 0.7518 0.5812 -0.3114
vn 0.3458 -0.4282 -0.8349
vn 0.8349 -0.4282 -0.3458
vn 0.8349 -0.4282 0.3458
vn 0.3458 -0.4282 0.8349
vn -0.3458 -0.4282 0.8349
vn -0.8349 -0.4282 0.3458
vn -0.8349 -0.4282 -0.3458
vn -0.3458 -0.4282 -0.8349
vn -0.3114 0.5812 -0.7518
vn 0.2430 0.7726 -0.5866
vn 0.5866 0.7726 -0.2430
vn 0.5866 0.7726 0.2430
vn 0.2430 0.7726 0.5866
vn -0.2430 0.7726 0.5866
vn -0.5866 0.7726 0.2430
vn -0.5866 0.7726 -0.2430
vn -0.2430 0.7726 -0.5866
vn -0.2862 0.6637 0.6911
vn -0.6911 0.6637 0.2862
vn -0.6911 0.6637 -0.2862
vn -0.2862 0.6637 -0.6911
vn 0.2862 0.6637 -0.6911
vn 0.6911 0.6637 -0.2862
vn 0.6911 0.6637 0.2862
vn 0.2862 0.6637 0.6911
vt 0.000000 0.500000
vt 1.000000 0.500000
vt 0.750000 0.490000
vt 0.875000 0.500000
vt 0.919706 0.419706
vt 0.750000 0.500000
vt 0.990000 0.250000
vt 0.625000 0.500000
vt 0.919706 0.080294
vt 0.500000 0.500000
vt 0.750000 0.010000
vt 0.375000 0.500000
vt 0.580294 0.080294
vt 0.250000 0.500000
vt 0.510000 0.250000
vt 0.125000 0.500000
vt 0.580294 0.419706
vt 0.000000 0.981772
vt 1.000000 0.981772
vt 0.250000 0.490000
vt 0.875000 0.981772
vt 0.419706 0.419706
vt 0.750000 0.981772
vt 0.490000 0.250000
vt 0.625000 0.981772
vt 0.419706 0.080294
vt 0.500000 0.981772
vt 0.250000 0.010000
vt 0.375000 0.981772
vt 0.080294 0.080294
vt 0.250000 0.981772
vt 0.010000 0.250000
vt 0.125000 0.981772
vt 0.080294 0.419706
vt 0.250000 0.399864
vt 0.250000 0.475790
vt 0.355970 0.355970
vt 0.409658 0.409658
vt 0.399864 0.250000
vt 0.475790 0.250000
vt 0.355970 0.144030
vt 0.409658 0.090342
vt 0.250000 0.100136
vt 0.250000 0.024210
vt 0.144030 0.144030
vt 0.090342 0.090342
vt 0.100136 0.250000
vt 0.024210 0.250000
vt 0.144030 0.355970
vt 0.090342 0.409658
vt 0.250000 0.430076
vt 0.377333 0.377333
vt 0.430076 0.250000
vt 0.377333 0.122667
vt 0.250000 0.069924
vt 0.122667 0.122667
vt 0.069924 0.250000
vt 0.122667 0.377333
vt 0.250000 0.414758
vt 0.366501 0.366501
vt 0.414758 0.250000
vt 0.366501 0.133499
vt 0.250000 0.085242
vt 0.133499 0.133499
vt 0.085242 0.250000
vt 0.133499 0.366501
vt 0.000000 0.500000
vt 1.000000 0.500000
vt 0.750000 0.490000
vt 0.875000 0.500000
vt 0.919706 0.419706
vt 0.750000 0.500000
vt 0.990000 0.250000
vt 0.625000 0.500000
vt 0.919706 0.080294
vt 0.500000 0.500000
vt 0.750000 0.010000
vt 0.375000 0.500000
vt 0.580294 0.080294
vt 0.250000 0.500000
vt 0.510000 0.250000
vt 0.125000 0.500000
vt 0.580294 0.419706
vt 0.000000 0.981772
vt 1.000000 0.981772
vt 0.250000 0.490000
vt 0.875000 0.981772
vt 0.419706 0.419706
vt 0.750000 0.981772
vt 0.490000 0.250000
vt 0.625000 0.981772
vt 0.419706 0.080294
vt 0.500000 0.981772
vt 0.250000 0.010000
vt 0.375000 0.981772
vt 0.080294 0.080294
vt 0.250000 0.981772
vt 0.010000 0.250000
vt 0.125000 0.981772
vt 0.080294 0.419706
vt 0.250000 0.399864
vt 0.250000 0.475790
vt 0.355970 0.355970
vt 0.409658 0.409658
vt 0.399864 0.250000
vt 0.475790 0.250000
vt 0.355970 0.144030
vt 0.409658 0.090342
vt 0.250000 0.100136
vt 0.250000 0.024210
vt 0.144030 0.144030
vt 0.090342 0.090342
vt 0.100136 0.250000
vt 0.024210 0.250000
vt 0.144030 0.355970
vt 0.090342 0.409658
vt 0.250000 0.430076
vt 0.377333 0.377333
vt 0.430076 0.250000
vt 0.377333 0.122667
vt 0.250000 0.069924
vt 0.122667 0.122667
vt 0.069924 0.250000
vt 0.122667 0.377333
vt 0.250000 0.414758
vt 0.366501 0.366501
vt 0.414758 0.250000
vt 0.366501 0.133499
vt 0.250000 0.085242
vt 0.133499 0.133499
vt 0.085242 0.250000
vt 0.133499 0.366501
s 0
f 8/16/1 16/33/1 9/18/1 1/1/1
f 3/6/2 11/23/2 12/25/2 4/8/2
f 4/8/3 12/25/3 13/27/3 5/10/3
f 5/10/4 13/27/4 14/29/4 6/12/4
f 6/12/5 14/29/5 15/31/5 7/14/5
f 7/14/6 15/31/6 16/33/6 8/16/6
f 1/2/7 9/19/7 10/21/7 2/4/7
f 2/4/8 10/21/8 11/23/8 3/6/8
f 1/3/9 2/5/9 3/7/9 4/9/9 5/11/9 6/13/9 7/15/9 8/17/9
f 19/37/10 17/35/10 31/49/10 29/47/10 27/45/10 25/43/10 23/41/10 21/39/10
f 12/26/11 11/24/11 22/40/11 24/42/11
f 13/28/12 12/26/12 24/42/12 26/44/12
f 14/30/13 13/28/13 26/44/13 28/46/13
f 15/32/14 14/30/14 28/46/14 30/48/14
f 16/34/15 15/32/15 30/48/15 32/50/15
f 10/22/16 9/20/16 18/36/16 20/38/16
f 11/24/17 10/22/17 20/38/17 22/40/17
f 33/51/18 34/52/18 20/38/18 18/36/18
f 34/52/19 35/53/19 22/40/19 20/38/19
f 35/53/20 36/54/20 24/42/20 22/40/20
f 36/54/21 37/55/21 26/44/21 24/42/21
f 37/55/22 38/56/22 28/46/22 26/44/22
f 38/56/23 39/57/23 30/48/23 28/46/23
f 39/57/24 40/58/24 32/50/24 30/48/24
f 40/58/25 33/51/25 18/36/25 32/50/25
f 9/20/26 16/34/26 32/50/26 18/36/26
f 41/59/27 42/60/27 34/52/27 33/51/27
f 42/60/28 43/61/28 35/53/28 34/52/28
f 43/61/29 44/62/29 36/54/29 35/53/29
f 44/62/30 45/63/30 37/55/30 36/54/30
f 45/63/31 46/64/31 38/56/31 37/55/31
f 46/64/32 47/65/32 39/57/32 38/56/32
f 47/65/33 48/66/33 40/58/33 39/57/33
f 48/66/34 41/59/34 33/51/34 40/58/34
f 17/35/35 19/37/35 42/60/35 41/59/35
f 19/37/36 21/39/36 43/61/36 42/60/36
f 21/39/37 23/41/37 44/62/37 43/61/37
f 23/41/38 25/43/38 45/63/38 44/62/38
f 25/43/39 27/45/39 46/64/39 45/63/39
f 27/45/40 29/47/40 47/65/40 46/64/40
f 29/47/41 31/49/41 48/66/41 47/65/41
f 31/49/42 17/35/42 41/59/42 48/66/42
f 56/82/7 64/99/7 57/84/7 49/67/7
f 51/72/5 59/89/5 60/91/5 52/74/5
f 52/74/4 60/91/4 61/93/4 53/76/4
f 53/76/3 61/93/3 62/95/3 54/78/3
f 54/78/2 62/95/2 63/97/2 55/80/2
f 55/80/8 63/97/8 64/99/8 56/82/8
f 49/68/1 57/85/1 58/87/1 50/70/1
f 50/70/6 58/87/6 59/89/6 51/72/6
f 49/69/10 50/71/10 51/73/10 52/75/10 53/77/10 54/79/10 55/81/10 56/83/10
f 67/103/9 65/101/9 79/115/9 77/113/9 75/111/9 73/109/9 71/107/9 69/105/9
f 60/92/43 59/90/43 70/106/43 72/108/43
f 61/94/44 60/92/44 72/108/44 74/110/44
f 62/96/45 61/94/45 74/110/45 76/112/45
f 63/98/46 62/96/46 76/112/46 78/114/46
f 64/100/47 63/98/47 78/114/47 80/116/47
f 58/88/48 57/86/48 66/102/48 68/104/48
f 59/90/49 58/88/49 68/104/49 70/106/49
f 81/117/50 82/118/50 68/104/50 66/102/50
f 82/118/51 83/119/51 70/106/51 68/104/51
f 83/119/52 84/120/52 72/108/52 70/106/52
f 84/120/53 85/121/53 74/110/53 72/108/53
f 85/121/54 86/122/54 76/112/54 74/110/54
f 86/122/55 87/123/55 78/114/55 76/112/55
f 87/123/56 88/124/56 80/116/56 78/114/56
f 88/124/57 81/117/57 66/102/57 80/116/57
f 57/86/58 64/100/58 80/116/58 66/102/58
f 89/125/59 90/126/59 82/118/59 81/117/59
f 90/126/60 91/127/60 83/119/60 82/118/60
f 91/127/61 92/128/61 84/120/61 83/119/61
f 92/128/62 93/129/62 85/121/62 84/120/62
f 93/129/63 94/130/63 86/122/63 85/121/63
f 94/130/64 95/131/64 87/123/64 86/122/64
f 95/131/65 96/132/65 88/124/65 87/123/65
f 96/132/66 89/125/66 81/117/66 88/124/66
f 65/101/67 67/103/67 90/126/67 89/125/67
f 67/103/68 69/105/68 91/127/68 90/126/68
f 69/105/69 71/107/69 92/128/69 91/127/69
f 71/107/70 73/109/70 93/129/70 92/128/70
f 73/109/71 75/111/71 94/130/71 93/129/71
f 75/111/72 77/113/72 95/131/72 94/130/72
f 77/113/73 79/115/73 96/132/73 95/131/73
f 79/115/74 65/101/74 89/125/74 96/132/74
